<svg height="14" overflow="visible" viewBox="0 0 11.70000000000001 14" width="11.70000000000001" xmlns="http://www.w3.org/2000/svg"><g><defs><path id="path-17298400250982331" d="M23.8 29 C23.8 29 23.8 15 23.8 15 C23.8 15 27.7 15 27.7 15 C27.7 15 27.7 29 27.7 29 C27.7 29 23.8 29 23.8 29 Z" vector-effect="non-scaling-stroke"/></defs> <path style="stroke-width: 0; stroke-linecap: butt; stroke-linejoin: miter; fill: rgb(0, 0, 0);" d="M7.800000000000011 14 C7.800000000000011 14 7.800000000000011 0 7.800000000000011 0 C7.800000000000011 0 11.70000000000001 0 11.70000000000001 0 C11.70000000000001 0 11.70000000000001 14 11.70000000000001 14 C11.70000000000001 14 7.800000000000011 14 7.800000000000011 14 Z" vector-effect="non-scaling-stroke"/></g><g><defs><path id="path-17298400250982329" d="M16 29 C16 29 16 15 16 15 C16 15 19.9 15 19.9 15 C19.9 15 19.9 29 19.9 29 C19.9 29 16 29 16 29 Z" vector-effect="non-scaling-stroke"/></defs> <path style="stroke-width: 0; stroke-linecap: butt; stroke-linejoin: miter; fill: rgb(0, 0, 0);" d="M0 14 C0 14 0 0 0 0 C0 0 3.8999999999999986 0 3.8999999999999986 0 C3.8999999999999986 0 3.8999999999999986 14 3.8999999999999986 14 C3.8999999999999986 14 0 14 0 14 Z" vector-effect="non-scaling-stroke"/></g></svg>