<?xml version="1.0" encoding="utf-8"?>
<svg version="1.1" id="Layer_1" xmlns="http://www.w3.org/2000/svg" xmlns:xlink="http://www.w3.org/1999/xlink" x="0px" y="0px"
	 viewBox="0 0 98 98" style="enable-background:new 0 0 98 98;" xml:space="preserve">
<style type="text/css">
	.st0{fill:#E0301E;}
</style>
<g>
	<g>
		<path class="st0" d="M49,1C22.5,1,1,22.5,1,49s21.5,48,48,48s48-21.5,48-48S75.5,1,49,1 M49,4.8c24.4,0,44.2,19.8,44.2,44.2
			S73.4,93.2,49,93.2S4.8,73.4,4.8,49S24.6,4.8,49,4.8"/>
		<path class="st0" d="M57.6,71H65c1.9-4.3,3-9.1,3-14.1c0-5.4-1.2-10.7-3.5-15.2h-5.5C49.4,37.4,42.8,28,42.4,17.4
			c-0.1-3.2-2.9-5.6-6-5.4c-3.2,0.1-5.6,2.8-5.4,6c0.3,6.3,2.1,12.3,5.1,17.6c0,0,0,0,0,0c0.3,1.7-0.7,3.3-2.3,3.8H19.4
			c-2.9,0-5.2,2.3-5.2,5.2c0,2.7,2.1,4.9,4.7,5.2c-2.7,0.2-4.9,2.4-4.9,5.2c0,2.9,2.3,5.2,5.2,5.2h0.4c-2.5,0.4-4.4,2.5-4.4,5.1
			c0,2.9,2.3,5.2,5.2,5.2h2c-1.1,0.8-1.7,2.1-1.7,3.6c0,2.5,2.1,4.6,4.6,4.6h15.8c0.2,0,0.3,0,0.4,0c0.3,0,0.6,0,0.9,0
			C48.7,78.6,54.1,75.6,57.6,71 M72.6,56.9c0,8.6-2.6,16.3-7,22.2h8.8c8.5-7.2,13.9-18,13.9-30.1c0-5.1-1-9.9-2.7-14.3H65.6
			C69.9,40.5,72.6,48.3,72.6,56.9"/>
	</g>
</g>
</svg>
