<svg version="1.2" xmlns="http://www.w3.org/2000/svg" xmlns:xlink="http://www.w3.org/1999/xlink" overflow="visible" preserveAspectRatio="none" viewBox="0 0 20.00001 19.997500000000002" width="20.00001" height="19.997500000000002"><g transform="translate(0, 0)"><g transform="translate(0.000010000000000509601, 2.0816681711721685e-17) rotate(0)"><path d="M10.07806,2.75l-0.66472,0.03028l-0.24333,-2.74361l0.91917,-0.03667zM11.66944,0.14194l0.89917,0.19278l-0.69222,2.66139l-0.65139,-0.13583zM7.60361,0.29222l0.67222,2.66611l-0.63639,0.19389l-0.91694,-2.5975zM14.06528,0.86389l0.8225,0.41l-1.33083,2.40667l-0.59722,-0.29333zM5.26806,1.19056l1.31333,2.41639l-0.56833,0.34611l-1.53333,-2.28889zM16.31806,2.24806l0.68722,0.61167l-1.91556,1.97361l-0.49944,-0.43917zM3.22944,2.64111l1.87083,2.015l-0.46472,0.47583l-2.05278,-1.83583zM18.04444,4.05917l0.51389,0.76278l-2.34528,1.43667l-0.37444,-0.54917zM1.61306,4.55222l2.31333,1.48722l-0.33222,0.57667l-2.44417,-1.26944zM19.26889,6.24111l0.30917,0.8675l-2.62889,0.81l-0.22667,-0.62528zM0.5225,6.80417l2.60972,0.86722l-0.17861,0.64083l-2.68306,-0.62361zM19.91528,8.65694l0.08472,0.91639l-2.7475,0.13222l-0.06472,-0.66194zM0.02444,9.25667l2.74333,0.19222l-0.01417,0.665l-2.75361,0.06222zM17.2025,10.85694l2.73806,0.3025l-0.14583,0.90861l-2.69417,-0.55417zM2.85611,11.26167l0.15139,0.64722l-2.6525,0.74389l-0.20444,-0.89667zM16.76611,12.61667l2.57778,0.9725l-0.36833,0.8425l-2.47222,-1.20472zM3.39194,12.99556l0.3075,0.58944l-2.38556,1.37889l-0.42028,-0.81806zM15.90694,14.21306l2.25583,1.58194l-0.565,0.72639l-2.09611,-1.78083zM4.34,14.5425l0.44417,0.495l-1.96861,1.92694l-0.61056,-0.68833zM14.67667,15.54611l1.79472,2.09222l-0.72944,0.56306l-1.58861,-2.245zM5.64278,15.80583l0.55306,0.36889l-1.42889,2.35556l-0.76111,-0.51528zM13.15667,16.53306l1.2175,2.47056l-0.84361,0.36611l-0.98222,-2.56917zM7.21861,16.70583l0.62722,0.22028l-0.8,2.63667l-0.86556,-0.30972zM11.43806,17.11083l0.56667,2.69639l-0.90778,0.14417l-0.31389,-2.7325zM8.96806,17.18694l0.66222,0.05806l-0.12,2.7525l-0.91639,-0.08583z" style="stroke: rgb(140, 140, 140); stroke-width: 0; stroke-linecap: butt; stroke-linejoin: miter; fill: rgb(255, 255, 255);" vector-effect="non-scaling-stroke"/></g><defs><path id="path-16121890438221001" d="M10.07806,2.75l-0.66472,0.03028l-0.24333,-2.74361l0.91917,-0.03667zM11.66944,0.14194l0.89917,0.19278l-0.69222,2.66139l-0.65139,-0.13583zM7.60361,0.29222l0.67222,2.66611l-0.63639,0.19389l-0.91694,-2.5975zM14.06528,0.86389l0.8225,0.41l-1.33083,2.40667l-0.59722,-0.29333zM5.26806,1.19056l1.31333,2.41639l-0.56833,0.34611l-1.53333,-2.28889zM16.31806,2.24806l0.68722,0.61167l-1.91556,1.97361l-0.49944,-0.43917zM3.22944,2.64111l1.87083,2.015l-0.46472,0.47583l-2.05278,-1.83583zM18.04444,4.05917l0.51389,0.76278l-2.34528,1.43667l-0.37444,-0.54917zM1.61306,4.55222l2.31333,1.48722l-0.33222,0.57667l-2.44417,-1.26944zM19.26889,6.24111l0.30917,0.8675l-2.62889,0.81l-0.22667,-0.62528zM0.5225,6.80417l2.60972,0.86722l-0.17861,0.64083l-2.68306,-0.62361zM19.91528,8.65694l0.08472,0.91639l-2.7475,0.13222l-0.06472,-0.66194zM0.02444,9.25667l2.74333,0.19222l-0.01417,0.665l-2.75361,0.06222zM17.2025,10.85694l2.73806,0.3025l-0.14583,0.90861l-2.69417,-0.55417zM2.85611,11.26167l0.15139,0.64722l-2.6525,0.74389l-0.20444,-0.89667zM16.76611,12.61667l2.57778,0.9725l-0.36833,0.8425l-2.47222,-1.20472zM3.39194,12.99556l0.3075,0.58944l-2.38556,1.37889l-0.42028,-0.81806zM15.90694,14.21306l2.25583,1.58194l-0.565,0.72639l-2.09611,-1.78083zM4.34,14.5425l0.44417,0.495l-1.96861,1.92694l-0.61056,-0.68833zM14.67667,15.54611l1.79472,2.09222l-0.72944,0.56306l-1.58861,-2.245zM5.64278,15.80583l0.55306,0.36889l-1.42889,2.35556l-0.76111,-0.51528zM13.15667,16.53306l1.2175,2.47056l-0.84361,0.36611l-0.98222,-2.56917zM7.21861,16.70583l0.62722,0.22028l-0.8,2.63667l-0.86556,-0.30972zM11.43806,17.11083l0.56667,2.69639l-0.90778,0.14417l-0.31389,-2.7325zM8.96806,17.18694l0.66222,0.05806l-0.12,2.7525l-0.91639,-0.08583z" vector-effect="non-scaling-stroke"/></defs></g></svg>