<svg height="42" overflow="visible" viewBox="-1 -1 42 42" width="42" xmlns="http://www.w3.org/2000/svg"><g><defs><path id="path-169571374911015817" d="M0.5128205128205128 20.51282051282051 C0.5128205128205128 9.467125516204574 9.467125516204574 0.5128205128205128 20.51282051282051 0.5128205128205128 C31.55851550943645 0.5128205128205128 40.51282051282051 9.467125516204574 40.51282051282051 20.51282051282051 C40.51282051282051 31.55851550943645 31.55851550943645 40.51282051282051 20.51282051282051 40.51282051282051 C9.467125516204574 40.51282051282051 0.5128205128205128 31.55851550943645 0.5128205128205128 20.51282051282051 Z" vector-effect="non-scaling-stroke"/></defs> <path style="stroke: transparent; stroke-width: 1; stroke-linecap: butt; stroke-linejoin: miter; fill: transparent;" d="M0 20 C0 8.954305003384036 8.954305003383979 0 20 0 C31.045694996615907 0 40 8.954305003384036 40 20 C40 31.045694996615936 31.045694996615907 40 20 40 C8.954305003383979 40 0 31.045694996615936 0 20 Z" vector-effect="non-scaling-stroke"/></g><g><defs><path id="path-169571374910915815" d="M9.159130502563917 14.902476410256671 C9.159130502563917 14.336030512994368 9.618325630942405 13.876835384615621 10.18477152820491 13.876835384615621 C10.751217425467182 13.876835384615621 11.210412553845904 14.336030512994368 11.210412553845904 14.902476410256671 C11.210412553845904 15.46892230751921 10.751217425467182 15.928117435897722 10.18477152820491 15.928117435897722 C9.618325630942405 15.928117435897722 9.159130502563917 15.46892230751921 9.159130502563917 14.902476410256671 Z" vector-effect="non-scaling-stroke"/></defs> <path style="stroke: rgb(0, 0, 0); stroke-width: 1; stroke-linecap: butt; stroke-linejoin: miter; fill: rgb(0, 0, 0);" d="M8.646309989743713 14.38965589743583 C8.646309989743713 13.823210000173532 9.10550511812221 13.36401487179478 9.671951015384707 13.36401487179478 C10.238396912646976 13.36401487179478 10.6975920410257 13.823210000173532 10.6975920410257 14.38965589743583 C10.6975920410257 14.956101794698384 10.238396912646976 15.41529692307688 9.671951015384707 15.41529692307688 C9.10550511812221 15.41529692307688 8.646309989743713 14.956101794698384 8.646309989743713 14.38965589743583 Z" vector-effect="non-scaling-stroke"/></g><g><defs><path id="path-169571374910915813" d="M9.159130502563917 21.03879025640969 C9.159130502563917 20.472344359147183 9.618325630942405 20.013149230768697 10.18477152820491 20.013149230768697 C10.751217425467182 20.013149230768697 11.210412553845904 20.472344359147183 11.210412553845904 21.03879025640969 C11.210412553845904 21.605236153671964 10.751217425467182 22.064431282050684 10.18477152820491 22.064431282050684 C9.618325630942405 22.064431282050684 9.159130502563917 21.605236153671964 9.159130502563917 21.03879025640969 Z" vector-effect="non-scaling-stroke"/></defs> <path style="stroke: rgb(0, 0, 0); stroke-width: 1; stroke-linecap: butt; stroke-linejoin: miter; fill: rgb(0, 0, 0);" d="M8.646309989743713 20.525969743589826 C8.646309989743713 19.9595238463273 9.10550511812221 19.500328717948832 9.671951015384707 19.500328717948832 C10.238396912646976 19.500328717948832 10.6975920410257 19.9595238463273 10.6975920410257 20.525969743589826 C10.6975920410257 21.092415640852096 10.238396912646976 21.55161076923082 9.671951015384707 21.55161076923082 C9.10550511812221 21.55161076923082 8.646309989743713 21.092415640852096 8.646309989743713 20.525969743589826 Z" vector-effect="non-scaling-stroke"/></g><g><defs><path id="path-169571374910915811" d="M9.159130502563917 27.1751041025633 C9.159130502563917 26.60865820530103 9.618325630942405 26.149463076922306 10.18477152820491 26.149463076922306 C10.751217425467182 26.149463076922306 11.210412553845904 26.60865820530103 11.210412553845904 27.1751041025633 C11.210412553845904 27.741549999825573 10.751217425467182 28.200745128204293 10.18477152820491 28.200745128204293 C9.618325630942405 28.200745128204293 9.159130502563917 27.741549999825573 9.159130502563917 27.1751041025633 Z" vector-effect="non-scaling-stroke"/></defs> <path style="stroke: rgb(0, 0, 0); stroke-width: 1; stroke-linecap: butt; stroke-linejoin: miter; fill: rgb(0, 0, 0);" d="M8.646309989743713 26.66228358974365 C8.646309989743713 26.095837692481382 9.10550511812221 25.636642564102658 9.671951015384707 25.636642564102658 C10.238396912646976 25.636642564102658 10.6975920410257 26.095837692481382 10.6975920410257 26.66228358974365 C10.6975920410257 27.22872948700592 10.238396912646976 27.687924615384645 9.671951015384707 27.687924615384645 C9.10550511812221 27.687924615384645 8.646309989743713 27.22872948700592 8.646309989743713 26.66228358974365 Z" vector-effect="non-scaling-stroke"/></g><g><defs><path id="path-169571374910915809" d="M14.416413333333077 14.902476410257497 C14.416413333333077 14.902476410257497 25.614142051281696 14.902476410257497 25.614142051281696 14.902476410257497" vector-effect="non-scaling-stroke"/></defs> <path style="stroke: rgb(0, 0, 0); stroke-width: 1.5; stroke-linecap: butt; stroke-linejoin: miter; fill: none;" d="M13.903592820512813 14.389655897435773 C13.903592820512813 14.389655897435773 25.101321538461434 14.389655897435773 25.101321538461434 14.389655897435773" vector-effect="non-scaling-stroke"/></g><g><defs><path id="path-169571374910815807" d="M14.416413333333086 27.1751041025633 C14.416413333333086 27.1751041025633 28.32734666666642 27.1751041025633 28.32734666666642 27.1751041025633" vector-effect="non-scaling-stroke"/></defs> <path style="stroke: rgb(0, 0, 0); stroke-width: 1.5; stroke-linecap: butt; stroke-linejoin: miter; fill: none;" d="M13.903592820512813 26.66228358974365 C13.903592820512813 26.66228358974365 27.814526153846145 26.66228358974365 27.814526153846145 26.66228358974365" vector-effect="non-scaling-stroke"/></g><g><defs><path id="path-169571374910815805" d="M14.416413333333164 21.03879025640969 C14.416413333333164 21.03879025640969 31.272559179486986 21.03879025640969 31.272559179486986 21.03879025640969" vector-effect="non-scaling-stroke"/></defs> <path style="stroke: rgb(0, 0, 0); stroke-width: 1.5; stroke-linecap: butt; stroke-linejoin: miter; fill: none;" d="M13.903592820512813 20.525969743589826 C13.903592820512813 20.525969743589826 30.759738666666635 20.525969743589826 30.759738666666635 20.525969743589826" vector-effect="non-scaling-stroke"/></g></svg>