<svg height="45" overflow="visible" viewBox="0 0 45 45" width="45" xmlns="http://www.w3.org/2000/svg"><g><defs><path id="path-16957119359826884" d="M0 22.5 C0 10.073593128807147 10.073593128807147 0 22.5 0 C34.92640687119285 0 45 10.073593128807147 45 22.5 C45 34.92640687119285 34.92640687119285 45 22.5 45 C10.073593128807147 45 0 34.92640687119285 0 22.5 Z" vector-effect="non-scaling-stroke"/></defs> <path style="stroke-width: 0; stroke-linecap: butt; stroke-linejoin: miter; fill: transparent;" d="M0 22.5 C0 10.073593128807147 10.073593128807147 0 22.5 0 C34.92640687119285 0 45 10.073593128807147 45 22.5 C45 34.92640687119285 34.92640687119285 45 22.5 45 C10.073593128807147 45 0 34.92640687119285 0 22.5 Z" vector-effect="non-scaling-stroke"/></g><g><defs><path id="path-16957119359816882" d="M9.704545489999987 15.852272699999958 C9.704545489999987 15.281160060468324 10.167523760468328 14.81818179000004 10.738636400000019 14.81818179000004 C11.309749039531653 14.81818179000004 11.772727309999993 15.281160060468324 11.772727309999993 15.852272699999958 C11.772727309999993 16.423385339531706 11.309749039531653 16.88636360999999 10.738636400000019 16.88636360999999 C10.167523760468328 16.88636360999999 9.704545489999987 16.423385339531706 9.704545489999987 15.852272699999958 Z" vector-effect="non-scaling-stroke"/></defs> <path style="stroke: rgb(255, 255, 255); stroke-width: 1; stroke-linecap: butt; stroke-linejoin: miter; fill: rgb(255, 255, 255);" d="M10.704545489999987 15.852272699999958 C10.704545489999987 15.281160060468324 11.167523760468328 14.81818179000004 11.738636400000019 14.81818179000004 C12.309749039531653 14.81818179000004 12.772727309999993 15.281160060468324 12.772727309999993 15.852272699999958 C12.772727309999993 16.423385339531706 12.309749039531653 16.88636360999999 11.738636400000019 16.88636360999999 C11.167523760468328 16.88636360999999 10.704545489999987 16.423385339531706 10.704545489999987 15.852272699999958 Z" vector-effect="non-scaling-stroke"/></g><g><defs><path id="path-16957119359816880" d="M9.704545489999987 23.01136359999998 C9.704545489999987 22.440250960468347 10.167523760468328 21.97727268999995 10.738636400000019 21.97727268999995 C11.309749039531653 21.97727268999995 11.772727309999993 22.440250960468347 11.772727309999993 23.01136359999998 C11.772727309999993 23.582476239531616 11.309749039531653 24.045454510000013 10.738636400000019 24.045454510000013 C10.167523760468328 24.045454510000013 9.704545489999987 23.582476239531616 9.704545489999987 23.01136359999998 Z" vector-effect="non-scaling-stroke"/></defs> <path style="stroke: rgb(255, 255, 255); stroke-width: 1; stroke-linecap: butt; stroke-linejoin: miter; fill: rgb(255, 255, 255);" d="M10.704545489999987 23.01136359999998 C10.704545489999987 22.440250960468347 11.167523760468328 21.97727268999995 11.738636400000019 21.97727268999995 C12.309749039531653 21.97727268999995 12.772727309999993 22.440250960468347 12.772727309999993 23.01136359999998 C12.772727309999993 23.582476239531616 12.309749039531653 24.045454510000013 11.738636400000019 24.045454510000013 C11.167523760468328 24.045454510000013 10.704545489999987 23.582476239531616 10.704545489999987 23.01136359999998 Z" vector-effect="non-scaling-stroke"/></g><g><defs><path id="path-16957119359806878" d="M9.704545489999987 30.170454500000005 C9.704545489999987 29.59934186046837 10.167523760468328 29.136363589999974 10.738636400000019 29.136363589999974 C11.309749039531653 29.136363589999974 11.772727309999993 29.59934186046837 11.772727309999993 30.170454500000005 C11.772727309999993 30.74156713953164 11.309749039531653 31.204545410000037 10.738636400000019 31.204545410000037 C10.167523760468328 31.204545410000037 9.704545489999987 30.74156713953164 9.704545489999987 30.170454500000005 Z" vector-effect="non-scaling-stroke"/></defs> <path style="stroke: rgb(255, 255, 255); stroke-width: 1; stroke-linecap: butt; stroke-linejoin: miter; fill: rgb(255, 255, 255);" d="M10.704545489999987 30.170454500000005 C10.704545489999987 29.59934186046837 11.167523760468328 29.136363589999974 11.738636400000019 29.136363589999974 C12.309749039531653 29.136363589999974 12.772727309999993 29.59934186046837 12.772727309999993 30.170454500000005 C12.772727309999993 30.74156713953164 12.309749039531653 31.204545410000037 11.738636400000019 31.204545410000037 C11.167523760468328 31.204545410000037 10.704545489999987 30.74156713953164 10.704545489999987 30.170454500000005 Z" vector-effect="non-scaling-stroke"/></g><g><defs><path id="path-16957119359806876" d="M15.340909099999976 15.852272699999958 C15.340909099999976 15.852272699999958 27.61363640000002 15.852272699999958 27.61363640000002 15.852272699999958" vector-effect="non-scaling-stroke"/></defs> <path style="stroke: rgb(255, 255, 255); stroke-width: 1.5; stroke-linecap: butt; stroke-linejoin: miter; fill: none;" d="M16.340909099999976 15.852272699999958 C16.340909099999976 15.852272699999958 28.61363640000002 15.852272699999958 28.61363640000002 15.852272699999958" vector-effect="non-scaling-stroke"/></g><g><defs><path id="path-16957119359796874" d="M15.340909099999976 30.170454500000005 C15.340909099999976 30.170454500000005 30.68181820000001 30.170454500000005 30.68181820000001 30.170454500000005" vector-effect="non-scaling-stroke"/></defs> <path style="stroke: rgb(255, 255, 255); stroke-width: 1.5; stroke-linecap: butt; stroke-linejoin: miter; fill: none;" d="M16.340909099999976 30.170454500000005 C16.340909099999976 30.170454500000005 31.68181820000001 30.170454500000005 31.68181820000001 30.170454500000005" vector-effect="non-scaling-stroke"/></g><g><defs><path id="path-16957119359796872" d="M15.340909099999976 23.01136359999998 C15.340909099999976 23.01136359999998 33.75 23.01136359999998 33.75 23.01136359999998" vector-effect="non-scaling-stroke"/></defs> <path style="stroke: rgb(255, 255, 255); stroke-width: 1.5; stroke-linecap: butt; stroke-linejoin: miter; fill: none;" d="M16.340909099999976 23.01136359999998 C16.340909099999976 23.01136359999998 34.75 23.01136359999998 34.75 23.01136359999998" vector-effect="non-scaling-stroke"/></g></svg>