<svg version="1.2" xmlns="http://www.w3.org/2000/svg" xmlns:xlink="http://www.w3.org/1999/xlink" overflow="visible" preserveAspectRatio="none" viewBox="0 0 21.000008587681354 25" width="21.000008587681354" height="25"><g transform="translate(0, 0)"><g transform="translate(0.000004293840674018945, -0.000009999999999621423) rotate(0)"><path style="stroke-width: 0; stroke-linecap: butt; stroke-linejoin: miter; fill: rgb(255, 255, 255);" d="M17.96666,3.05556l-0.03522,-0.03472c-2.04276,-2.01389 -4.71949,-3.02083 -7.43144,-3.02083c-2.67673,0 -5.38867,1.00694 -7.43144,3.02083l-0.03522,0.03472c-4.05031,4.02778 -4.05031,10.59028 0.03522,14.61806l7.43144,7.32639l7.43144,-7.32639c4.08553,-4.02778 4.08553,-10.59028 0.03522,-14.61806zM10.5,13.75c-2.04276,0 -3.69811,-1.63194 -3.69811,-3.64583c0,-2.01389 1.65534,-3.64583 3.69811,-3.64583c2.04276,0 3.69811,1.63194 3.69811,3.64583c0,2.01389 -1.65534,3.64583 -3.69811,3.64583z" vector-effect="non-scaling-stroke"/></g><defs><path id="path-17108541603354680" d="M17.96666,3.05556l-0.03522,-0.03472c-2.04276,-2.01389 -4.71949,-3.02083 -7.43144,-3.02083c-2.67673,0 -5.38867,1.00694 -7.43144,3.02083l-0.03522,0.03472c-4.05031,4.02778 -4.05031,10.59028 0.03522,14.61806l7.43144,7.32639l7.43144,-7.32639c4.08553,-4.02778 4.08553,-10.59028 0.03522,-14.61806zM10.5,13.75c-2.04276,0 -3.69811,-1.63194 -3.69811,-3.64583c0,-2.01389 1.65534,-3.64583 3.69811,-3.64583c2.04276,0 3.69811,1.63194 3.69811,3.64583c0,2.01389 -1.65534,3.64583 -3.69811,3.64583z" vector-effect="non-scaling-stroke"/></defs></g></svg>