<svg version="1.2" xmlns="http://www.w3.org/2000/svg" xmlns:xlink="http://www.w3.org/1999/xlink" overflow="visible" preserveAspectRatio="none" viewBox="0 0 14.000000666673373 14" width="14.000000666673373" height="14"><g transform="translate(0, 0)"><g transform="translate(0, 0) rotate(0)"><path d="M7.875,3.5v4.88833l1.54194,-1.54194c0.34476,-0.32125 0.88201,-0.31177 1.21523,0.02144c0.33321,0.33321 0.34269,0.87046 0.02144,1.21523l-3.03333,3.03528v0l-0.62028,0.61833l-0.61833,-0.61833v0l-3.03528,-3.03528c-0.32125,-0.34476 -0.31177,-0.88201 0.02144,-1.21523c0.33321,-0.33321 0.87046,-0.34269 1.21523,-0.02144l1.54194,1.54194v-4.88833h-6.125v9.91667c0,0.32217 0.26117,0.58333 0.58333,0.58333h12.83333c0.32217,0 0.58333,-0.26117 0.58333,-0.58333v-9.91667zM7.875,3.5v-3.5h-1.75v3.5z" style="stroke-width: 0; fill: rgb(0, 0, 0);" vector-effect="non-scaling-stroke"/></g><defs><path id="path-1670852554045116705" d="M7.875,3.5v4.88833l1.54194,-1.54194c0.34476,-0.32125 0.88201,-0.31177 1.21523,0.02144c0.33321,0.33321 0.34269,0.87046 0.02144,1.21523l-3.03333,3.03528v0l-0.62028,0.61833l-0.61833,-0.61833v0l-3.03528,-3.03528c-0.32125,-0.34476 -0.31177,-0.88201 0.02144,-1.21523c0.33321,-0.33321 0.87046,-0.34269 1.21523,-0.02144l1.54194,1.54194v-4.88833h-6.125v9.91667c0,0.32217 0.26117,0.58333 0.58333,0.58333h12.83333c0.32217,0 0.58333,-0.26117 0.58333,-0.58333v-9.91667zM7.875,3.5v-3.5h-1.75v3.5z" vector-effect="non-scaling-stroke"/></defs></g></svg>