<svg xmlns="http://www.w3.org/2000/svg" xmlns:xlink="http://www.w3.org/1999/xlink" version="1.2" overflow="visible" preserveAspectRatio="none" viewBox="0 0 27.99980555555556 15.237152777777782" width="27.99980555555556" height="15.237152777777782"><g transform="translate(0, 0)"><defs><path id="path-168742062519328822" d="M26.505597222222224 0.25637500000000013 C26.505597222222224 0.25637500000000013 13.999319444444446 12.762652777777781 13.999319444444446 12.762652777777781 C13.999319444444446 12.762652777777781 1.4942083333333334 0.25637500000000013 1.4942083333333334 0.25637500000000013 C1.1523749999999982 -0.08545833333333246 0.5982083333333325 -0.08545833333333246 0.2563749999999973 0.25637500000000013 C-0.08545833333333243 0.5982083333333327 -0.08545833333333243 1.1523750000000013 0.2563749999999973 1.4942083333333338 C0.2563749999999973 1.4942083333333338 13.999319444444446 15.237152777777782 13.999319444444446 15.237152777777782 C13.999319444444446 15.237152777777782 27.743430555555555 1.4942083333333338 27.743430555555555 1.4942083333333338 C28.085263888888882 1.1523750000000013 28.085263888888882 0.5982083333333327 27.743430555555555 0.25637500000000013 C27.401597222222225 -0.08545833333333246 26.847430555555555 -0.08545833333333246 26.505597222222224 0.25637500000000013 Z" vector-effect="non-scaling-stroke"/></defs><g transform="translate(0, 0)"><path style="stroke: rgb(140, 140, 140); stroke-width: 0; stroke-linecap: butt; stroke-linejoin: miter; fill: rgb(0, 0, 0);" d="M26.505597222222224 0.25637500000000013 C26.505597222222224 0.25637500000000013 13.999319444444446 12.762652777777781 13.999319444444446 12.762652777777781 C13.999319444444446 12.762652777777781 1.4942083333333334 0.25637500000000013 1.4942083333333334 0.25637500000000013 C1.1523749999999982 -0.08545833333333246 0.5982083333333325 -0.08545833333333246 0.2563749999999973 0.25637500000000013 C-0.08545833333333243 0.5982083333333327 -0.08545833333333243 1.1523750000000013 0.2563749999999973 1.4942083333333338 C0.2563749999999973 1.4942083333333338 13.999319444444446 15.237152777777782 13.999319444444446 15.237152777777782 C13.999319444444446 15.237152777777782 27.743430555555555 1.4942083333333338 27.743430555555555 1.4942083333333338 C28.085263888888882 1.1523750000000013 28.085263888888882 0.5982083333333327 27.743430555555555 0.25637500000000013 C27.401597222222225 -0.08545833333333246 26.847430555555555 -0.08545833333333246 26.505597222222224 0.25637500000000013 Z" vector-effect="non-scaling-stroke"/></g></g></svg>