<svg xmlns="http://www.w3.org/2000/svg" viewBox="0 0 186.23 186.25">
  <defs><style>.cls-1 {fill: #fff;}</style></defs>
  <path class="cls-1" d="M46.37,186.25a46.38,46.38,0,0,1-32.81-79.18L41.21,79.43a5.93,5.93,0,0,1,8.39,8.38L22,115.45A34.54,34.54,0,0,0,70.8,164.3l32.43-32.43A34.56,34.56,0,0,0,88.87,74.39,5.93,5.93,0,0,1,92.31,63a46.42,46.42,0,0,1,19.31,77.21L79.18,172.68A46.25,46.25,0,0,1,46.37,186.25Z"/>
  <path class="cls-1" d="M95.07,123.3a6,6,0,0,1-1.81-.28,46.58,46.58,0,0,1-18.65-11.39,46.41,46.41,0,0,1,0-65.61l32.44-32.43A46.4,46.4,0,0,1,172.67,79.2L145,106.84a5.93,5.93,0,1,1-8.39-8.38l27.65-27.64A34.54,34.54,0,1,0,115.43,22L83,54.4a34.58,34.58,0,0,0,0,48.85,34.13,34.13,0,0,0,13.87,8.48,5.93,5.93,0,0,1-1.8,11.57Z"/>
</svg>
