<?xml version="1.0" encoding="utf-8"?>
<!-- Generator: Adobe Illustrator 19.2.1, SVG Export Plug-In . SVG Version: 6.00 Build 0)  -->
<svg version="1.1" id="Layer_1" xmlns="http://www.w3.org/2000/svg" xmlns:xlink="http://www.w3.org/1999/xlink" x="0px" y="0px"
	 viewBox="0 0 30 30" style="enable-background:new 0 0 30 30; fill: #e0301e;" xml:space="preserve">
<g>
	<path d="M23.4,29c-0.2,0-0.4-0.1-0.6-0.2l-7.6-4c-0.1,0-0.3,0-0.4,0l-7.6,4C6.8,29,6.3,29,6,28.8c-0.3-0.3-0.5-0.7-0.4-1.2L7,19.2
		c0-0.1-0.1-0.3-0.1-0.4l-6.1-6c-0.4-0.3-0.5-0.8-0.4-1.2c0.1-0.4,0.5-0.7,1-0.8l8.4-1.2c0.1,0,0.3-0.2,0.3-0.2L14,1.7
		C14.2,1.3,14.6,1,15,1h0c0.4,0,0.8,0.3,1,0.7l3.8,7.6c0,0.1,0.2,0.2,0.3,0.2l8.4,1.2c0.5,0.1,0.9,0.4,1,0.8c0.1,0.4,0,0.9-0.3,1.2
		l-6.1,6C23,18.8,23,19.1,23,19.2l1.4,8.4c0.1,0.5-0.1,0.9-0.4,1.2C23.8,28.9,23.6,29,23.4,29z M15.4,2.5L15.4,2.5L15.4,2.5
		L15.4,2.5z M14.5,2.5L14.5,2.5L14.5,2.5z"/>
</g>
</svg>
