<?xml version="1.0" encoding="utf-8"?>
<!-- Generator: Adobe Illustrator 20.1.0, SVG Export Plug-In . SVG Version: 6.00 Build 0)  -->
<svg version="1.1" id="Layer_1" xmlns="http://www.w3.org/2000/svg" xmlns:xlink="http://www.w3.org/1999/xlink" x="0px" y="0px"
	 viewBox="0 0 30 30" style="enable-background:new 0 0 30 30; fill: #6d6e71;" xml:space="preserve">
<g>
	<path d="M23.378,28.954c-0.206,0-0.416-0.055-0.622-0.161l-7.556-3.971c-0.077-0.045-0.313-0.048-0.393-0.003l-7.562,3.974
		c-0.438,0.226-0.903,0.21-1.249-0.039c-0.347-0.255-0.503-0.693-0.421-1.177l1.442-8.41c0.015-0.093-0.058-0.319-0.126-0.384
		l-6.108-5.955C0.431,12.486,0.3,12.038,0.433,11.63c0.132-0.406,0.501-0.693,0.986-0.764l8.447-1.228
		c0.09-0.013,0.284-0.153,0.326-0.235l3.778-7.654c0.216-0.442,0.603-0.703,1.031-0.703h0.003c0.429,0.002,0.816,0.266,1.028,0.709
		l3.778,7.647c0.042,0.084,0.229,0.221,0.326,0.237l8.445,1.225c0.487,0.073,0.854,0.358,0.986,0.766
		c0.132,0.406,0.003,0.854-0.348,1.196l-6.112,5.958c-0.068,0.064-0.139,0.29-0.126,0.384l1.441,8.41
		c0.084,0.484-0.074,0.925-0.419,1.177C23.82,28.886,23.604,28.954,23.378,28.954z M2.66,12.352l5.386,5.252
		c0.454,0.445,0.706,1.218,0.6,1.841l-1.272,7.414l6.659-3.501c0.554-0.297,1.37-0.3,1.937,0.003l6.656,3.497l-1.27-7.414
		c-0.11-0.625,0.145-1.399,0.596-1.841l5.389-5.252l-7.449-1.08c-0.629-0.093-1.286-0.572-1.563-1.138l-3.33-6.747l-3.33,6.747
		c-0.28,0.566-0.938,1.044-1.565,1.136L2.66,12.352z M15.445,2.48v0.002V2.48L15.445,2.48z M14.549,2.48h0.003H14.549z"/>
</g>
</svg>
