<?xml version="1.0" encoding="utf-8"?>
<!-- Generator: Adobe Illustrator 22.0.1, SVG Export Plug-In . SVG Version: 6.00 Build 0)  -->
<svg version="1.1" id="Layer_1" xmlns="http://www.w3.org/2000/svg" xmlns:xlink="http://www.w3.org/1999/xlink" x="0px" y="0px"
	 viewBox="0 0 30 30" style="enable-background:new 0 0 30 30; fill: #6d6e71;" xml:space="preserve">
<g>
	<path d="M15,0.052c-8.208,0-14.887,6.706-14.887,14.949c0,8.242,6.678,14.947,14.887,14.947c8.208,0,14.886-6.705,14.886-14.947
		C29.886,6.758,23.208,0.052,15,0.052z M15,1.703c7.298,0,13.235,5.965,13.235,13.298c0,2.903-0.941,5.583-2.519,7.772
		c-1.927-3.266-6.08-5.435-10.707-5.435c-4.63,0-8.781,2.155-10.713,5.453c-1.585-2.192-2.532-4.879-2.532-7.79
		C1.765,7.668,7.702,1.703,15,1.703z M15,28.298c-3.743,0-7.121-1.576-9.53-4.094c1.451-3.099,5.243-5.167,9.54-5.167
		c4.296,0,8.095,2.086,9.537,5.149C22.136,26.714,18.752,28.298,15,28.298z"/>
	<path d="M15.009,15.965c3.295,0,5.975-2.681,5.975-5.975s-2.68-5.975-5.975-5.975c-3.294,0-5.975,2.681-5.975,5.975
		S11.715,15.965,15.009,15.965z M15.009,5.715c2.357,0,4.275,1.917,4.275,4.275s-1.918,4.275-4.275,4.275s-4.275-1.917-4.275-4.275
		S12.652,5.715,15.009,5.715z"/>
</g>
</svg>
