<svg version="1.2" xmlns="http://www.w3.org/2000/svg" xmlns:xlink="http://www.w3.org/1999/xlink" overflow="visible" preserveAspectRatio="none" viewBox="0 0 30 35" width="30" height="35"><g transform="translate(0, 0)"><defs><path id="path-1729144910100155491" d="M13.9 30.8 C13.9 30.8 1.8 18.8 1.8 18.8 C1.4 18.400000000000002 0.7 18.400000000000002 0.30000000000000004 18.8 C-0.09999999999999998 19.2 -0.09999999999999998 19.900000000000002 0.30000000000000004 20.3 C0.30000000000000004 20.3 15 35 15 35 C15 35 29.7 20.3 29.7 20.3 C30.099999999999998 19.900000000000002 30.099999999999998 19.2 29.7 18.8 C29.3 18.400000000000002 28.599999999999998 18.400000000000002 28.2 18.8 C28.2 18.8 16.1 30.9 16.1 30.9 C16.1 30.9 16.1 1.1 16.1 1.1 C16.1 0.5000000000000001 15.600000000000001 0 15.000000000000002 0 C14.400000000000002 0 13.900000000000002 0.5 13.900000000000002 1.1 C13.900000000000002 1.1 13.9 30.8 13.9 30.8 Z" vector-effect="non-scaling-stroke"/></defs><g transform="translate(-2.7755575615628914e-17, 0)"><path style="stroke-width: 0; stroke-linecap: butt; stroke-linejoin: miter; fill: rgb(0, 0, 0);" d="M13.9 30.8 C13.9 30.8 1.8 18.8 1.8 18.8 C1.4 18.400000000000002 0.7 18.400000000000002 0.30000000000000004 18.8 C-0.09999999999999998 19.2 -0.09999999999999998 19.900000000000002 0.30000000000000004 20.3 C0.30000000000000004 20.3 15 35 15 35 C15 35 29.7 20.3 29.7 20.3 C30.099999999999998 19.900000000000002 30.099999999999998 19.2 29.7 18.8 C29.3 18.400000000000002 28.599999999999998 18.400000000000002 28.2 18.8 C28.2 18.8 16.1 30.9 16.1 30.9 C16.1 30.9 16.1 1.1 16.1 1.1 C16.1 0.5000000000000001 15.600000000000001 0 15.000000000000002 0 C14.400000000000002 0 13.900000000000002 0.5 13.900000000000002 1.1 C13.900000000000002 1.1 13.9 30.8 13.9 30.8 Z" vector-effect="non-scaling-stroke"/></g></g></svg>