<svg version="1.2" xmlns="http://www.w3.org/2000/svg" xmlns:xlink="http://www.w3.org/1999/xlink" overflow="visible" preserveAspectRatio="none" viewBox="0 0 74 74" id="Layer_1_1582039795044" width="14" height="14"><g transform="translate(1, 1)"><defs><style>.cls-1_1582039795044{fill:#fff;}</style></defs><path transform="translate(-1 -1.5)" d="M41.5,19.5V44.64l7.93-7.93a4.5,4.5,0,0,1,6.36,6.36L40.19,58.68h0L37,61.86l-3.18-3.18h0L18.21,43.07a4.5,4.5,0,0,1,6.36-6.36l7.93,7.93V19.5H1v51a3,3,0,0,0,3,3H70a3,3,0,0,0,3-3v-51Zm0,0V1.5h-9v18Z" class="cls-1_1582039795044" id="Fill-v2_1582039795044" vector-effect="non-scaling-stroke" style="fill: rgb(208, 74, 2);"/></g></svg>