<svg height="14" overflow="visible" viewBox="0 0 19 14" width="19" xmlns="http://www.w3.org/2000/svg"><g><defs><path id="path-171334230881962482" d="M19,14h-19v-14h19zM1,13h17v-12h-17z" vector-effect="non-scaling-stroke"/></defs><path style="stroke-width: 0; stroke-linecap: butt; stroke-linejoin: miter; fill: rgb(255, 255, 255);" d="M19,14h-19v-14h19zM1,13h17v-12h-17z" transform="translate(0, 0) rotate(0)" vector-effect="non-scaling-stroke"/></g><g><defs><path id="path-171334230880862415" d="M7.4999847412109375 5.999999952316102 C7.399984741210915 5.699999952316375 7.299984741210892 5.399999952316193 6.9999847412109375 5.199999952316375 C6.699984741210983 4.999999952316102 6.399984741210915 4.899999952316193 5.9999847412109375 4.899999952316193 C5.799984741210892 4.899999952316193 5.59998474121096 4.899999952316193 5.399984741210915 4.999999952316102 C5.299984741210892 4.999999952316102 5.09998474121096 5.099999952316466 4.9999847412109375 5.299999952316284 C4.899984741210915 5.499999952316102 4.59998474121096 5.699999952316375 4.4999847412109375 5.999999952316102 C4.399984741210915 6.299999952316284 4.399984741210915 6.699999952316375 4.399984741210915 7.099999952316466 C4.399984741210915 7.399999952316193 4.399984741210915 7.599999952316466 4.4999847412109375 7.899999952316193 C4.59998474121096 8.199999952316375 4.699984741210983 8.399999952316193 4.799984741210892 8.599999952316466 C4.899984741210915 8.799999952316284 4.9999847412109375 8.999999952316102 5.299984741210892 9.099999952316466 C5.4999847412109375 9.199999952316375 5.699984741210983 9.299999952316284 5.9999847412109375 9.299999952316284 C6.399984741210915 9.299999952316284 6.699984741210983 9.199999952316375 6.9999847412109375 8.899999952316193 C7.299984741210892 8.699999952316375 7.399984741210915 8.299999952316284 7.4999847412109375 7.899999952316193 C7.4999847412109375 7.899999952316193 8.899984741210915 7.899999952316193 8.899984741210915 7.899999952316193 C8.699984741210983 8.699999952316375 8.399984741210915 9.299999952316284 7.899984741210915 9.699999952316375 C7.4999847412109375 10.099999952316466 6.799984741210892 10.299999952316284 5.9999847412109375 10.299999952316284 C5.4999847412109375 10.299999952316284 5.09998474121096 10.199999952316375 4.699984741210983 10.099999952316466 C4.299984741210892 9.999999952316102 3.9999847412109375 9.699999952316375 3.799984741210892 9.399999952316193 C3.4999847412109375 9.099999952316466 3.299984741210892 8.799999952316284 3.199984741210983 8.399999952316193 C3.0999847412109602 7.999999952316102 2.9999847412109375 7.599999952316466 2.9999847412109375 7.099999952316466 C2.9999847412109375 6.699999952316375 3.0999847412109602 6.199999952316375 3.199984741210983 5.799999952316284 C3.299984741210892 5.399999952316193 3.4999847412109375 5.099999952316466 3.799984741210892 4.799999952316284 C4.09998474121096 4.499999952316102 4.399984741210915 4.299999952316284 4.799984741210892 4.099999952316466 C5.199984741210983 3.8999999523161932 5.4999847412109375 3.799999952316284 6.09998474121096 3.799999952316284 C6.4999847412109375 3.799999952316284 6.799984741210892 3.799999952316284 7.09998474121096 3.8999999523161932 C7.399984741210915 3.9999999523161023 7.699984741210983 4.099999952316466 7.9999847412109375 4.299999952316284 C8.199984741210983 4.499999952316102 8.399984741210915 4.799999952316284 8.59998474121096 4.999999952316102 C8.799984741210892 5.299999952316284 8.899984741210915 5.599999952316466 8.899984741210915 5.999999952316102 C8.899984741210915 5.999999952316102 7.4999847412109375 5.999999952316102 7.4999847412109375 5.999999952316102 Z" vector-effect="non-scaling-stroke"/></defs> <path style="stroke-width: 0; stroke-linecap: butt; stroke-linejoin: miter; fill: rgb(255, 255, 255);" d="M7.5 5.999999952316102 C7.400000000000091 5.69999995231592 7.2999999999999545 5.399999952316648 7 5.19999995231592 C6.7000000000000455 4.999999952316102 6.400000000000091 4.899999952316648 6 4.899999952316648 C5.7999999999999545 4.899999952316648 5.599999999999909 4.899999952316648 5.400000000000091 4.999999952316102 C5.2999999999999545 4.999999952316102 5.099999999999909 5.099999952316466 5 5.299999952316284 C4.900000000000091 5.499999952316102 4.599999999999909 5.69999995231592 4.5 5.999999952316102 C4.400000000000091 6.299999952316284 4.400000000000091 6.69999995231592 4.400000000000091 7.099999952316466 C4.400000000000091 7.399999952316648 4.400000000000091 7.599999952316466 4.5 7.899999952316648 C4.599999999999909 8.19999995231592 4.7000000000000455 8.399999952316648 4.7999999999999545 8.599999952316466 C4.900000000000091 8.799999952316284 5 8.999999952316102 5.2999999999999545 9.099999952316466 C5.5 9.19999995231592 5.7000000000000455 9.299999952316284 6 9.299999952316284 C6.400000000000091 9.299999952316284 6.7000000000000455 9.19999995231592 7 8.899999952316648 C7.2999999999999545 8.69999995231592 7.400000000000091 8.299999952316284 7.5 7.899999952316648 C7.5 7.899999952316648 8.900000000000091 7.899999952316648 8.900000000000091 7.899999952316648 C8.700000000000045 8.69999995231592 8.400000000000091 9.299999952316284 7.900000000000091 9.69999995231592 C7.5 10.099999952316466 6.7999999999999545 10.299999952316284 6 10.299999952316284 C5.5 10.299999952316284 5.099999999999909 10.19999995231592 4.7000000000000455 10.099999952316466 C4.2999999999999545 9.999999952316102 4 9.69999995231592 3.7999999999999545 9.399999952316648 C3.5 9.099999952316466 3.2999999999999545 8.799999952316284 3.2000000000000455 8.399999952316648 C3.099999999999909 7.999999952316102 3 7.599999952316466 3 7.099999952316466 C3 6.69999995231592 3.099999999999909 6.19999995231592 3.2000000000000455 5.799999952316284 C3.2999999999999545 5.399999952316648 3.5 5.099999952316466 3.7999999999999545 4.799999952316284 C4.099999999999909 4.499999952316102 4.400000000000091 4.299999952316284 4.7999999999999545 4.099999952316466 C5.2000000000000455 3.899999952316648 5.5 3.799999952316284 6.099999999999909 3.799999952316284 C6.5 3.799999952316284 6.7999999999999545 3.799999952316284 7.099999999999909 3.899999952316648 C7.400000000000091 3.9999999523161023 7.7000000000000455 4.099999952316466 8 4.299999952316284 C8.200000000000045 4.499999952316102 8.400000000000091 4.799999952316284 8.599999999999909 4.999999952316102 C8.799999999999955 5.299999952316284 8.900000000000091 5.599999952316466 8.900000000000091 5.999999952316102 C8.900000000000091 5.999999952316102 7.5 5.999999952316102 7.5 5.999999952316102 Z" vector-effect="non-scaling-stroke"/></g><g><defs><path id="path-171334230880762413" d="M14.59998474121096 5.999999952316102 C14.499984741210938 5.599999952316466 14.399984741210915 5.299999952316284 14.09998474121096 5.099999952316466 C13.799984741210892 4.899999952316193 13.499984741210938 4.799999952316284 13.09998474121096 4.799999952316284 C12.899984741210915 4.799999952316284 12.699984741210983 4.799999952316284 12.499984741210938 4.899999952316193 C12.399984741210915 4.999999952316102 12.199984741210983 5.099999952316466 11.999984741210938 5.299999952316284 C11.799984741210892 5.499999952316102 11.699984741210983 5.699999952316375 11.59998474121096 5.999999952316102 C11.499984741210938 6.299999952316284 11.399984741210915 6.699999952316375 11.399984741210915 7.099999952316466 C11.399984741210915 7.399999952316193 11.399984741210915 7.599999952316466 11.499984741210938 7.899999952316193 C11.59998474121096 8.199999952316375 11.699984741210983 8.399999952316193 11.799984741210892 8.599999952316466 C11.899984741210915 8.799999952316284 12.09998474121096 8.999999952316102 12.299984741210892 9.099999952316466 C12.499984741210938 9.199999952316375 12.799984741210892 9.299999952316284 13.09998474121096 9.299999952316284 C13.499984741210938 9.299999952316284 13.799984741210892 9.199999952316375 14.09998474121096 8.899999952316193 C14.399984741210915 8.699999952316375 14.499984741210938 8.299999952316284 14.59998474121096 7.899999952316193 C14.59998474121096 7.899999952316193 15.999984741210938 7.899999952316193 15.999984741210938 7.899999952316193 C15.899984741210915 8.699999952316375 15.59998474121096 9.299999952316284 15.09998474121096 9.799999952316284 C14.59998474121096 10.199999952316375 13.999984741210938 10.399999952316193 13.199984741210983 10.399999952316193 C12.699984741210983 10.399999952316193 12.299984741210892 10.299999952316284 11.899984741210915 10.199999952316375 C11.399984741210915 9.899999952316193 11.09998474121096 9.699999952316375 10.899984741210915 9.399999952316193 C10.59998474121096 9.099999952316466 10.399984741210915 8.799999952316284 10.299984741210892 8.399999952316193 C10.09998474121096 7.999999952316102 10.09998474121096 7.599999952316466 10.09998474121096 7.099999952316466 C10.09998474121096 6.599999952316466 10.199984741210983 6.199999952316375 10.299984741210892 5.799999952316284 C10.399984741210915 5.399999952316193 10.59998474121096 5.099999952316466 10.799984741210892 4.799999952316284 C10.999984741210938 4.499999952316102 11.399984741210915 4.299999952316284 11.799984741210892 4.099999952316466 C12.199984741210983 3.8999999523161932 12.59998474121096 3.799999952316284 13.09998474121096 3.799999952316284 C13.499984741210938 3.799999952316284 13.799984741210892 3.799999952316284 14.09998474121096 3.8999999523161932 C14.399984741210915 3.9999999523161023 14.699984741210983 4.099999952316466 14.999984741210938 4.299999952316284 C15.299984741210892 4.499999952316102 15.499984741210938 4.699999952316375 15.59998474121096 4.999999952316102 C15.799984741210892 5.299999952316284 15.899984741210915 5.599999952316466 15.899984741210915 5.999999952316102 C15.899984741210915 5.999999952316102 14.59998474121096 5.999999952316102 14.59998474121096 5.999999952316102 Z" vector-effect="non-scaling-stroke"/></defs> <path style="stroke-width: 0; stroke-linecap: butt; stroke-linejoin: miter; fill: rgb(255, 255, 255);" d="M14.599999999999909 5.999999952316102 C14.5 5.599999952316466 14.400000000000091 5.299999952316284 14.099999999999909 5.099999952316466 C13.799999999999955 4.899999952316648 13.5 4.799999952316284 13.099999999999909 4.799999952316284 C12.900000000000091 4.799999952316284 12.700000000000045 4.799999952316284 12.5 4.899999952316648 C12.400000000000091 4.999999952316102 12.200000000000045 5.099999952316466 12 5.299999952316284 C11.799999999999955 5.499999952316102 11.700000000000045 5.69999995231592 11.599999999999909 5.999999952316102 C11.5 6.299999952316284 11.400000000000091 6.69999995231592 11.400000000000091 7.099999952316466 C11.400000000000091 7.399999952316648 11.400000000000091 7.599999952316466 11.5 7.899999952316648 C11.599999999999909 8.19999995231592 11.700000000000045 8.399999952316648 11.799999999999955 8.599999952316466 C11.900000000000091 8.799999952316284 12.099999999999909 8.999999952316102 12.299999999999955 9.099999952316466 C12.5 9.19999995231592 12.799999999999955 9.299999952316284 13.099999999999909 9.299999952316284 C13.5 9.299999952316284 13.799999999999955 9.19999995231592 14.099999999999909 8.899999952316648 C14.400000000000091 8.69999995231592 14.5 8.299999952316284 14.599999999999909 7.899999952316648 C14.599999999999909 7.899999952316648 16 7.899999952316648 16 7.899999952316648 C15.900000000000091 8.69999995231592 15.599999999999909 9.299999952316284 15.099999999999909 9.799999952316284 C14.599999999999909 10.19999995231592 14 10.399999952316648 13.200000000000045 10.399999952316648 C12.700000000000045 10.399999952316648 12.299999999999955 10.299999952316284 11.900000000000091 10.19999995231592 C11.400000000000091 9.899999952316648 11.099999999999909 9.69999995231592 10.900000000000091 9.399999952316648 C10.599999999999909 9.099999952316466 10.400000000000091 8.799999952316284 10.299999999999955 8.399999952316648 C10.099999999999909 7.999999952316102 10.099999999999909 7.599999952316466 10.099999999999909 7.099999952316466 C10.099999999999909 6.599999952316466 10.200000000000045 6.19999995231592 10.299999999999955 5.799999952316284 C10.400000000000091 5.399999952316648 10.599999999999909 5.099999952316466 10.799999999999955 4.799999952316284 C11 4.499999952316102 11.400000000000091 4.299999952316284 11.799999999999955 4.099999952316466 C12.200000000000045 3.899999952316648 12.599999999999909 3.799999952316284 13.099999999999909 3.799999952316284 C13.5 3.799999952316284 13.799999999999955 3.799999952316284 14.099999999999909 3.899999952316648 C14.400000000000091 3.9999999523161023 14.700000000000045 4.099999952316466 15 4.299999952316284 C15.299999999999955 4.499999952316102 15.5 4.69999995231592 15.599999999999909 4.999999952316102 C15.799999999999955 5.299999952316284 15.900000000000091 5.599999952316466 15.900000000000091 5.999999952316102 C15.900000000000091 5.999999952316102 14.599999999999909 5.999999952316102 14.599999999999909 5.999999952316102 Z" vector-effect="non-scaling-stroke"/></g></svg>