<svg height="16" overflow="visible" viewBox="-1 -1 21 16" width="21" xmlns="http://www.w3.org/2000/svg"><g><defs><path id="path-171377778874291350" d="M0 0 C0 0 19 0 19 0 C19 0 19 14 19 14 C19 14 0 14 0 14 C0 14 0 0 0 0 Z" vector-effect="non-scaling-stroke"/></defs> <path style="stroke: rgb(224, 48, 30); stroke-width: 1; stroke-linecap: butt; stroke-linejoin: miter; fill: rgb(224, 48, 30);" d="M0 0 C0 0 19 0 19 0 C19 0 19 14 19 14 C19 14 0 14 0 14 C0 14 0 0 0 0 Z" vector-effect="non-scaling-stroke"/></g><g><defs><path id="path-171377778871191177" d="M4.48799999999983 2.244000000000142 C4.432000000000017 1.8600000000001273 4.278000000000021 1.5700000000001637 4.025999999999841 1.3740000000000236 C3.7739999999998877 1.178000000000111 3.4559999999999045 1.0800000000001546 3.071999999999889 1.0800000000001546 C2.8959999999999586 1.0800000000001546 2.708000000000084 1.1100000000001273 2.5080000000000386 1.1700000000000728 C2.307999999999993 1.2300000000000182 2.1239999999997967 1.3420000000000982 1.955999999999904 1.5060000000000855 C1.7880000000000111 1.6700000000000728 1.647999999999911 1.8980000000001382 1.535999999999831 2.1900000000000546 C1.4239999999999784 2.4820000000001983 1.3679999999999384 2.8640000000000327 1.3679999999999384 3.3360000000000127 C1.3679999999999384 3.5920000000000982 1.397999999999911 3.847999999999956 1.4579999999998565 4.104000000000042 C1.5180000000000293 4.360000000000127 1.614000000000033 4.587999999999965 1.7459999999998674 4.788000000000011 C1.8779999999999293 4.988000000000056 2.048000000000002 5.150000000000091 2.2559999999998586 5.274000000000115 C2.4639999999999422 5.398000000000138 2.715999999999895 5.460000000000036 3.011999999999944 5.460000000000036 C3.4119999999998076 5.460000000000036 3.7419999999999627 5.336000000000013 4.001999999999954 5.087999999999965 C4.2619999999999445 4.8400000000001455 4.423999999999752 4.492000000000189 4.48799999999983 4.044000000000096 C4.48799999999983 4.044000000000096 5.855999999999995 4.044000000000096 5.855999999999995 4.044000000000096 C5.728000000000066 4.852000000000089 5.422000000000026 5.470000000000027 4.9379999999998745 5.898000000000138 C4.453999999999951 6.326000000000022 3.8119999999998986 6.539999999999964 3.011999999999944 6.539999999999964 C2.5239999999998877 6.539999999999964 2.0940000000000514 6.458000000000084 1.7219999999999802 6.294000000000096 C1.3499999999999093 6.130000000000109 1.0360000000000584 5.905999999999949 0.7799999999999728 5.622000000000071 C0.5239999999998873 5.338000000000193 0.3299999999999273 5.000000000000227 0.19799999999986545 4.608000000000175 C0.06600000000003094 4.216000000000122 0 3.7919999999999168 0 3.3360000000000127 C0 2.872000000000071 0.06400000000007822 2.436000000000149 0.1920000000000073 2.02800000000002 C0.3199999999999364 1.6200000000001182 0.5119999999999437 1.2660000000000764 0.7680000000000292 0.9660000000001219 C1.0239999999998874 0.6660000000001673 1.341999999999871 0.43000000000006366 1.7219999999999802 0.2580000000000382 C2.101999999999862 0.08600000000001273 2.5480000000000023 0 3.059999999999946 0 C3.4199999999998454 0 3.7619999999999445 0.04600000000004911 4.086000000000014 0.13800000000014734 C4.409999999999855 0.2300000000000182 4.697999999999866 0.36800000000016553 4.949999999999819 0.5520000000001346 C5.201999999999999 0.7360000000001037 5.407999999999903 0.9680000000000747 5.5679999999999845 1.2480000000000473 C5.728000000000066 1.52800000000002 5.82400000000007 1.8600000000001273 5.855999999999995 2.244000000000142 C5.855999999999995 2.244000000000142 4.48799999999983 2.244000000000142 4.48799999999983 2.244000000000142 Z" vector-effect="non-scaling-stroke"/></defs> <path style="stroke: rgb(140, 140, 140); stroke-width: 0; stroke-linecap: butt; stroke-linejoin: miter; fill: rgb(45, 45, 45);" d="M7.487999999999829 6.044000000000324 C7.432000000000016 5.660000000000309 7.27800000000002 5.370000000000346 7.02599999999984 5.173999999999978 C6.773999999999887 4.9780000000000655 6.455999999999904 4.880000000000109 6.071999999999889 4.880000000000109 C5.895999999999958 4.880000000000109 5.708000000000084 4.910000000000309 5.508000000000038 4.970000000000255 C5.307999999999993 5.0300000000002 5.123999999999796 5.14200000000028 4.955999999999904 5.306000000000495 C4.788000000000011 5.470000000000255 4.647999999999911 5.69800000000032 4.535999999999831 5.9900000000002365 C4.423999999999978 6.282000000000153 4.367999999999938 6.664000000000215 4.367999999999938 7.136000000000422 C4.367999999999938 7.39200000000028 4.397999999999911 7.648000000000138 4.457999999999856 7.904000000000451 C4.518000000000029 8.16000000000031 4.614000000000033 8.38799999999992 4.745999999999867 8.588000000000193 C4.877999999999929 8.788000000000466 5.048000000000002 8.950000000000273 5.255999999999858 9.074000000000524 C5.463999999999942 9.19800000000032 5.7159999999998945 9.260000000000218 6.011999999999944 9.260000000000218 C6.411999999999807 9.260000000000218 6.741999999999962 9.136000000000422 7.001999999999953 8.88799999999992 C7.261999999999944 8.640000000000327 7.423999999999751 8.292000000000371 7.487999999999829 7.844000000000051 C7.487999999999829 7.844000000000051 8.855999999999995 7.844000000000051 8.855999999999995 7.844000000000051 C8.728000000000065 8.652000000000044 8.422000000000025 9.270000000000437 7.9379999999998745 9.69800000000032 C7.453999999999951 10.126000000000204 6.811999999999898 10.340000000000146 6.011999999999944 10.340000000000146 C5.523999999999887 10.340000000000146 5.094000000000051 10.258000000000266 4.72199999999998 10.094000000000051 C4.349999999999909 9.930000000000291 4.036000000000058 9.706000000000131 3.7799999999999727 9.42200000000048 C3.5239999999998872 9.138000000000375 3.3299999999999272 8.800000000000182 3.1979999999998654 8.408000000000357 C3.066000000000031 8.016000000000531 3 7.592000000000098 3 7.136000000000422 C3 6.67200000000048 3.064000000000078 6.236000000000331 3.1920000000000073 5.828000000000429 C3.3199999999999363 5.420000000000073 3.5119999999999436 5.066000000000258 3.768000000000029 4.766000000000531 C4.023999999999887 4.466000000000349 4.341999999999871 4.230000000000473 4.72199999999998 4.057999999999993 C5.101999999999862 3.886000000000422 5.548000000000002 3.800000000000182 6.059999999999945 3.800000000000182 C6.419999999999845 3.800000000000182 6.761999999999944 3.8460000000004584 7.086000000000013 3.938000000000102 C7.4099999999998545 4.0300000000002 7.697999999999865 4.168000000000575 7.949999999999818 4.3520000000003165 C8.201999999999998 4.536000000000058 8.407999999999902 4.768000000000484 8.567999999999984 5.048000000000229 C8.728000000000065 5.328000000000429 8.82400000000007 5.660000000000309 8.855999999999995 6.044000000000324 C8.855999999999995 6.044000000000324 7.487999999999829 6.044000000000324 7.487999999999829 6.044000000000324 Z" vector-effect="non-scaling-stroke"/></g><g><defs><path id="path-171377778871191175" d="M4.488000000000057 2.244000000000142 C4.432000000000017 1.8600000000001273 4.278000000000021 1.5700000000001637 4.026000000000067 1.3740000000000236 C3.7740000000001155 1.178000000000111 3.456000000000131 1.0800000000001546 3.072000000000117 1.0800000000001546 C2.8959999999999586 1.0800000000001546 2.708000000000084 1.1100000000001273 2.5080000000000386 1.1700000000000728 C2.307999999999993 1.2300000000000182 2.124000000000024 1.3420000000000982 1.9560000000001312 1.5060000000000855 C1.7880000000000111 1.6700000000000728 1.647999999999911 1.8980000000001382 1.5360000000000584 2.1900000000000546 C1.4239999999999784 2.4820000000001983 1.3679999999999384 2.8640000000000327 1.3679999999999384 3.3360000000000127 C1.3679999999999384 3.5920000000000982 1.397999999999911 3.847999999999956 1.458000000000084 4.104000000000042 C1.5180000000000293 4.360000000000127 1.614000000000033 4.587999999999965 1.746000000000095 4.788000000000011 C1.8779999999999293 4.988000000000056 2.048000000000002 5.150000000000091 2.256000000000086 5.274000000000115 C2.4639999999999422 5.398000000000138 2.715999999999895 5.460000000000036 3.011999999999944 5.460000000000036 C3.412000000000035 5.460000000000036 3.7419999999999627 5.336000000000013 4.001999999999954 5.087999999999965 C4.2619999999999445 4.8400000000001455 4.423999999999979 4.492000000000189 4.488000000000057 4.044000000000096 C4.488000000000057 4.044000000000096 5.855999999999995 4.044000000000096 5.855999999999995 4.044000000000096 C5.728000000000066 4.852000000000089 5.422000000000026 5.470000000000027 4.938000000000103 5.898000000000138 C4.453999999999951 6.326000000000022 3.8119999999998986 6.539999999999964 3.011999999999944 6.539999999999964 C2.5239999999998877 6.539999999999964 2.0940000000000514 6.458000000000084 1.7219999999999802 6.294000000000096 C1.3499999999999093 6.130000000000109 1.0360000000000584 5.905999999999949 0.7799999999999728 5.622000000000071 C0.5239999999998873 5.338000000000193 0.3299999999999273 5.000000000000227 0.1980000000000928 4.608000000000175 C0.06600000000003094 4.216000000000122 0 3.7919999999999168 0 3.3360000000000127 C0 2.872000000000071 0.06400000000007822 2.436000000000149 0.1920000000000073 2.02800000000002 C0.3199999999999364 1.6200000000001182 0.5119999999999437 1.2660000000000764 0.7680000000000292 0.9660000000001219 C1.0240000000001148 0.6660000000001673 1.3420000000000984 0.43000000000006366 1.7219999999999802 0.2580000000000382 C2.1020000000000896 0.08600000000001273 2.5480000000000023 0 3.059999999999946 0 C3.420000000000073 0 3.7620000000001714 0.04600000000004911 4.086000000000014 0.13800000000014734 C4.410000000000083 0.2300000000000182 4.698000000000094 0.36800000000016553 4.950000000000046 0.5520000000001346 C5.201999999999999 0.7360000000001037 5.407999999999903 0.9680000000000747 5.5679999999999845 1.2480000000000473 C5.728000000000066 1.52800000000002 5.82400000000007 1.8600000000001273 5.855999999999995 2.244000000000142 C5.855999999999995 2.244000000000142 4.488000000000057 2.244000000000142 4.488000000000057 2.244000000000142 Z" vector-effect="non-scaling-stroke"/></defs> <path style="stroke: rgb(140, 140, 140); stroke-width: 0; stroke-linecap: butt; stroke-linejoin: miter; fill: rgb(45, 45, 45);" d="M14.560000000000173 6.044000000000324 C14.504000000000133 5.660000000000309 14.350000000000136 5.370000000000346 14.098000000000184 5.173999999999978 C13.846000000000231 4.9780000000000655 13.528000000000247 4.880000000000109 13.144000000000233 4.880000000000109 C12.968000000000075 4.880000000000109 12.7800000000002 4.910000000000309 12.580000000000155 4.970000000000255 C12.38000000000011 5.0300000000002 12.19600000000014 5.14200000000028 12.028000000000247 5.306000000000495 C11.860000000000127 5.470000000000255 11.720000000000027 5.69800000000032 11.608000000000175 5.9900000000002365 C11.496000000000095 6.282000000000153 11.440000000000055 6.664000000000215 11.440000000000055 7.136000000000422 C11.440000000000055 7.39200000000028 11.470000000000027 7.648000000000138 11.5300000000002 7.904000000000451 C11.590000000000146 8.16000000000031 11.68600000000015 8.38799999999992 11.818000000000211 8.588000000000193 C11.950000000000045 8.788000000000466 12.120000000000118 8.950000000000273 12.328000000000202 9.074000000000524 C12.536000000000058 9.19800000000032 12.788000000000011 9.260000000000218 13.08400000000006 9.260000000000218 C13.484000000000151 9.260000000000218 13.814000000000078 9.136000000000422 14.07400000000007 8.88799999999992 C14.33400000000006 8.640000000000327 14.496000000000095 8.292000000000371 14.560000000000173 7.844000000000051 C14.560000000000173 7.844000000000051 15.928000000000111 7.844000000000051 15.928000000000111 7.844000000000051 C15.800000000000182 8.652000000000044 15.494000000000142 9.270000000000437 15.010000000000218 9.69800000000032 C14.526000000000067 10.126000000000204 13.884000000000015 10.340000000000146 13.08400000000006 10.340000000000146 C12.596000000000004 10.340000000000146 12.166000000000167 10.258000000000266 11.794000000000096 10.094000000000051 C11.422000000000025 9.930000000000291 11.108000000000175 9.706000000000131 10.85200000000009 9.42200000000048 C10.596000000000004 9.138000000000375 10.402000000000044 8.800000000000182 10.27000000000021 8.408000000000357 C10.138000000000147 8.016000000000531 10.072000000000116 7.592000000000098 10.072000000000116 7.136000000000422 C10.072000000000116 6.67200000000048 10.136000000000195 6.236000000000331 10.264000000000124 5.828000000000429 C10.392000000000053 5.420000000000073 10.58400000000006 5.066000000000258 10.840000000000146 4.766000000000531 C11.096000000000231 4.466000000000349 11.414000000000215 4.230000000000473 11.794000000000096 4.057999999999993 C12.174000000000206 3.886000000000422 12.620000000000118 3.800000000000182 13.132000000000062 3.800000000000182 C13.49200000000019 3.800000000000182 13.834000000000287 3.8460000000004584 14.15800000000013 3.938000000000102 C14.482000000000198 4.0300000000002 14.77000000000021 4.168000000000575 15.022000000000162 4.3520000000003165 C15.274000000000115 4.536000000000058 15.480000000000018 4.768000000000484 15.6400000000001 5.048000000000229 C15.800000000000182 5.328000000000429 15.896000000000186 5.660000000000309 15.928000000000111 6.044000000000324 C15.928000000000111 6.044000000000324 14.560000000000173 6.044000000000324 14.560000000000173 6.044000000000324 Z" vector-effect="non-scaling-stroke"/></g></svg>