<svg height="14" overflow="visible" viewBox="0 0 14 14" width="14" xmlns="http://www.w3.org/2000/svg"><g><defs><path id="path-171334230881662468" d="M-0.0000152587890625 14 C-0.0000152587890625 14 -0.0000152587890625 9.982515310000053 -0.0000152587890625 9.982515310000053 C-0.0000152587890625 9.608918580000136 0.3024492462109265 9.306451370000104 0.6760426442110656 9.306451370000104 C1.049636041210988 9.306451370000104 1.352100551210924 9.608918580000136 1.352100551210924 9.982515310000053 C1.352100551210924 9.982515310000053 1.352100551210924 11.691680099999758 1.352100551210924 11.691680099999758 C1.352100551210924 11.691680099999758 5.265967901210843 7.777777780000179 5.265967901210843 7.777777780000179 C5.265967901210843 7.777777780000179 6.222206961210986 8.733969809999962 6.222206961210986 8.733969809999962 C6.222206961210986 8.733969809999962 2.3083396112108403 12.647872099999859 2.3083396112108403 12.647872099999859 C2.3083396112108403 12.647872099999859 4.017433551210843 12.647872099999859 4.017433551210843 12.647872099999859 C4.391026941210839 12.647872099999859 4.693491451211003 12.950339299999996 4.693491451211003 13.323936100000083 C4.693491451211003 13.697532799999863 4.391026941210839 14 4.017433551210843 14 C4.017433551210843 14 -0.0000152587890625 14 -0.0000152587890625 14 Z" vector-effect="non-scaling-stroke"/></defs> <path style="stroke-width: 0; stroke-linecap: butt; stroke-linejoin: miter; fill: rgb(255, 255, 255);" d="M0 14 C0 14 0 9.982515310000053 0 9.982515310000053 C0 9.608918580000136 0.302464504999989 9.306451370000104 0.6760579030001281 9.306451370000104 C1.0496513000000505 9.306451370000104 1.3521158099999866 9.608918580000136 1.3521158099999866 9.982515310000053 C1.3521158099999866 9.982515310000053 1.3521158099999866 11.691680099999758 1.3521158099999866 11.691680099999758 C1.3521158099999866 11.691680099999758 5.265983159999905 7.777777780000179 5.265983159999905 7.777777780000179 C5.265983159999905 7.777777780000179 6.222222220000049 8.733969810000417 6.222222220000049 8.733969810000417 C6.222222220000049 8.733969810000417 2.308354869999903 12.647872100000313 2.308354869999903 12.647872100000313 C2.308354869999903 12.647872100000313 4.017448809999905 12.647872100000313 4.017448809999905 12.647872100000313 C4.391042199999902 12.647872100000313 4.693506710000065 12.950339299999541 4.693506710000065 13.323936099999628 C4.693506710000065 13.697532799999863 4.391042199999902 14 4.017448809999905 14 C4.017448809999905 14 0 14 0 14 Z" vector-effect="non-scaling-stroke"/></g><g><defs><path id="path-171334230881662466" d="M13.999984741210938 0 C13.999984741210938 0 13.999984741210938 4.017484689999947 13.999984741210938 4.017484689999947 C13.999984741210938 4.391081419999864 13.697517541211027 4.693548629999896 13.323976341210937 4.693548629999896 C12.950324041210934 4.693548629999896 12.647856841211023 4.391081419999864 12.647856841211023 4.017484689999947 C12.647856841211023 4.017484689999947 12.647856841211023 2.3083199100001366 12.647856841211023 2.3083199100001366 C12.647856841211023 2.3083199100001366 8.7339545512109 6.222222219999821 8.7339545512109 6.222222219999821 C8.7339545512109 6.222222219999821 7.777762521210889 5.266030190000038 7.777762521210889 5.266030190000038 C7.777762521210889 5.266030190000038 11.691664841210923 1.3521278799998981 11.691664841210923 1.3521278799998981 C11.691664841210923 1.3521278799998981 9.982500051210991 1.3521278799998981 9.982500051210991 1.3521278799998981 C9.608903321210846 1.3521278799998981 9.306436111211042 1.0496606799997608 9.306436111211042 0.6760639409999385 C9.306436111211042 0.30246720600007393 9.608903321210846 0 9.982500051210991 0 C9.982500051210991 0 13.999984741210938 0 13.999984741210938 0 Z" vector-effect="non-scaling-stroke"/></defs> <path style="stroke-width: 0; stroke-linecap: butt; stroke-linejoin: miter; fill: rgb(255, 255, 255);" d="M14 0 C14 0 14 4.017484689999947 14 4.017484689999947 C14 4.391081419999864 13.69753280000009 4.693548629999896 13.3239916 4.693548629999896 C12.950339299999996 4.693548629999896 12.647872100000086 4.391081419999864 12.647872100000086 4.017484689999947 C12.647872100000086 4.017484689999947 12.647872100000086 2.3083199100001366 12.647872100000086 2.3083199100001366 C12.647872100000086 2.3083199100001366 8.733969809999962 6.222222219999821 8.733969809999962 6.222222219999821 C8.733969809999962 6.222222219999821 7.777777779999951 5.266030189999583 7.777777779999951 5.266030189999583 C7.777777779999951 5.266030189999583 11.691680099999985 1.3521278799998981 11.691680099999985 1.3521278799998981 C11.691680099999985 1.3521278799998981 9.982515310000053 1.3521278799998981 9.982515310000053 1.3521278799998981 C9.608918579999909 1.3521278799998981 9.306451370000104 1.0496606799997608 9.306451370000104 0.6760639410003932 C9.306451370000104 0.30246720600007393 9.608918579999909 0 9.982515310000053 0 C9.982515310000053 0 14 0 14 0 Z" vector-effect="non-scaling-stroke"/></g></svg>