<svg version="1.2" xmlns="http://www.w3.org/2000/svg" xmlns:xlink="http://www.w3.org/1999/xlink" overflow="visible" preserveAspectRatio="none" viewBox="0 0 5 9.182111461897534" width="5" height="9.182111461897534"><g transform="translate(0, 0)"><defs><path id="path-1714143511808446675" d="M0.09126592590503359 0.08385373025438682 C0.20321012133667019 -0.02795124341812901 0.3845599016993045 -0.02795124341812901 0.49650409713094196 0.08385373025438682 C0.49650409713094196 0.08385373025438682 5 4.587349633123445 5 4.587349633123445 C5 4.587349633123445 0.49650409713094196 9.090845535992502 0.49650409713094196 9.090845535992502 C0.42502521401747795 9.16755527820587 0.3173752376759815 9.19913174383716 0.21578532874589387 9.173187463443092 C0.11419541981580619 9.14724318304902 0.0348682788485153 9.067916042081729 0.008923998454443551 8.966326133151641 C-0.017020281939627294 8.864736224221554 0.014556183691665331 8.757086247880055 0.09126592590503359 8.685607364766593 C0.09126592590503359 8.685607364766593 4.189523657548183 4.587349633123445 4.189523657548183 4.587349633123445 C4.189523657548183 4.587349633123445 0.09126592590503359 0.4890919014802952 0.09126592590503359 0.4890919014802952 C-0.020539047767481545 0.37714770604865816 -0.020539047767481545 0.19579792568602367 0.09126592590503359 0.08385373025438682 Z" vector-effect="non-scaling-stroke"/></defs><g transform="translate(0, 0)"><path style="stroke: rgb(140, 140, 140); stroke-width: 0; stroke-linecap: butt; stroke-linejoin: miter; fill: rgb(242, 242, 242);" d="M0.09126592590503359 0.08385373025438682 C0.20321012133667019 -0.02795124341812901 0.3845599016993045 -0.02795124341812901 0.49650409713094196 0.08385373025438682 C0.49650409713094196 0.08385373025438682 5 4.587349633123445 5 4.587349633123445 C5 4.587349633123445 0.49650409713094196 9.090845535992502 0.49650409713094196 9.090845535992502 C0.42502521401747795 9.16755527820587 0.3173752376759815 9.19913174383716 0.21578532874589387 9.173187463443092 C0.11419541981580619 9.14724318304902 0.0348682788485153 9.067916042081729 0.008923998454443551 8.966326133151641 C-0.017020281939627294 8.864736224221554 0.014556183691665331 8.757086247880055 0.09126592590503359 8.685607364766593 C0.09126592590503359 8.685607364766593 4.189523657548183 4.587349633123445 4.189523657548183 4.587349633123445 C4.189523657548183 4.587349633123445 0.09126592590503359 0.4890919014802952 0.09126592590503359 0.4890919014802952 C-0.020539047767481545 0.37714770604865816 -0.020539047767481545 0.19579792568602367 0.09126592590503359 0.08385373025438682 Z" vector-effect="non-scaling-stroke"/></g></g></svg>