<svg version="1.2" xmlns="http://www.w3.org/2000/svg" xmlns:xlink="http://www.w3.org/1999/xlink" overflow="visible" preserveAspectRatio="none" viewBox="0 0 54 44" width="54" height="44"><g transform="translate(0, 0)"><defs><path id="path-17139528132761043" d="M26.999999999999982 -7.830337685444479e-16 C26.999999999999982 -7.830337685444479e-16 53.999999999999986 43.99999999999999 53.999999999999986 43.99999999999999 C53.999999999999986 43.99999999999999 6.876852029002306e-17 43.99999999999999 6.876852029002306e-17 43.99999999999999 C6.876852029002306e-17 43.99999999999999 26.999999999999982 -7.830337685444479e-16 26.999999999999982 -7.830337685444479e-16 Z" vector-effect="non-scaling-stroke"/></defs><g transform="translate(0, 0)"><path style="stroke: rgb(140, 140, 140); stroke-width: 0; stroke-linecap: butt; stroke-linejoin: miter; fill: rgb(255, 255, 255);" d="M26.999999999999982 -7.830337685444479e-16 C26.999999999999982 -7.830337685444479e-16 53.999999999999986 43.99999999999999 53.999999999999986 43.99999999999999 C53.999999999999986 43.99999999999999 6.876852029002306e-17 43.99999999999999 6.876852029002306e-17 43.99999999999999 C6.876852029002306e-17 43.99999999999999 26.999999999999982 -7.830337685444479e-16 26.999999999999982 -7.830337685444479e-16 Z" vector-effect="non-scaling-stroke"/></g></g></svg>