<svg version="1.2" xmlns="http://www.w3.org/2000/svg" xmlns:xlink="http://www.w3.org/1999/xlink" overflow="visible" preserveAspectRatio="none" viewBox="0 0 62 75" xml:space="preserve" y="0px" x="0px" id="Layer_1_1706877233154" width="60" height="73"><g transform="translate(1, 1)"><style type="text/css">
	.st0_1706877233154{fill:#FFFFFF;}
	.st1_1706877233154{font-family:'HelveticaNeue-Bold';}
	.st2_1706877233154{font-size:20px;}
</style><path d="M13.9,14.5l1.1-1.1h15c12,0,22.8,7.2,27.4,18.3s2.1,23.8-6.4,32.3s-21.2,11-32.3,6.4  C7.7,65.8,0.4,55,0.4,43h4.5c0,13.9,11.3,25.1,25.1,25.1S55.2,56.9,55.2,43S44,17.8,30.1,17.8h-15L14,16.7l1.1,1.1h-2.5v-4.5H15  L13.9,14.5z M12.6,17.8H15l8.9,8.9c0.9,0.9,0.9,2.3,0,3.2c-0.9,0.9-2.3,0.9-3.2,0L6.4,15.6L20.7,1.3c0.9-0.8,2.3-0.8,3.1,0.1  s0.9,2.2,0.1,3.1L15,13.3h-2.4V17.8z" class="st0_1706877233154" id="Outline-v2_1706877233154" vector-effect="non-scaling-stroke" /><text class="st0_1706877233154 st1_1706877233154 st2_1706877233154" transform="matrix(1 0 0 1 18.9911 50)" vector-effect="non-scaling-stroke">10</text></g></svg> 