<svg version="1.2" xmlns="http://www.w3.org/2000/svg" xmlns:xlink="http://www.w3.org/1999/xlink" overflow="visible" preserveAspectRatio="none" viewBox="0 0 16.590909099999976 16.363636399999905" width="16.590909099999976" height="16.363636399999905"><g transform="translate(0, 0)"><defs><path id="path-16951892399681833" d="M29.91904090081789 15.340900421142578 C29.91904090081789 15.340900421142578 22.59945445081786 22.56021860114265 22.59945445081786 22.56021860114265 C22.59945445081786 22.56021860114265 15.280098385817894 15.340900421142578 15.280098385817894 15.340900421142578 C15.280098385817894 15.340900421142578 14.303999900817871 16.30340042114267 14.303999900817871 16.30340042114267 C14.303999900817871 16.30340042114267 21.623586390817877 23.522718601142515 21.623586390817877 23.522718601142515 C21.623586390817877 23.522718601142515 14.303999900817871 30.74203682114262 14.303999900817871 30.74203682114262 C14.303999900817871 30.74203682114262 15.280098385817894 31.704536821142483 15.280098385817894 31.704536821142483 C15.280098385817894 31.704536821142483 22.59945445081786 24.485218601142606 22.59945445081786 24.485218601142606 C22.59945445081786 24.485218601142606 29.91904090081789 31.704536821142483 29.91904090081789 31.704536821142483 C29.91904090081789 31.704536821142483 30.894909000817847 30.74203682114262 30.894909000817847 30.74203682114262 C30.894909000817847 30.74203682114262 23.575552930817878 23.522718601142515 23.575552930817878 23.522718601142515 C23.575552930817878 23.522718601142515 30.894909000817847 16.30340042114267 30.894909000817847 16.30340042114267 C30.894909000817847 16.30340042114267 29.91904090081789 15.340900421142578 29.91904090081789 15.340900421142578 Z" vector-effect="non-scaling-stroke"/></defs><g transform="translate(-14.303999900817871, -15.340900421142578)"><path style="stroke-width: 0; stroke-linecap: butt; stroke-linejoin: miter; fill: rgb(255, 255, 255);" d="M29.91904090081789 15.340900421142578 C29.91904090081789 15.340900421142578 22.59945445081786 22.56021860114265 22.59945445081786 22.56021860114265 C22.59945445081786 22.56021860114265 15.280098385817894 15.340900421142578 15.280098385817894 15.340900421142578 C15.280098385817894 15.340900421142578 14.303999900817871 16.30340042114267 14.303999900817871 16.30340042114267 C14.303999900817871 16.30340042114267 21.623586390817877 23.522718601142515 21.623586390817877 23.522718601142515 C21.623586390817877 23.522718601142515 14.303999900817871 30.74203682114262 14.303999900817871 30.74203682114262 C14.303999900817871 30.74203682114262 15.280098385817894 31.704536821142483 15.280098385817894 31.704536821142483 C15.280098385817894 31.704536821142483 22.59945445081786 24.485218601142606 22.59945445081786 24.485218601142606 C22.59945445081786 24.485218601142606 29.91904090081789 31.704536821142483 29.91904090081789 31.704536821142483 C29.91904090081789 31.704536821142483 30.894909000817847 30.74203682114262 30.894909000817847 30.74203682114262 C30.894909000817847 30.74203682114262 23.575552930817878 23.522718601142515 23.575552930817878 23.522718601142515 C23.575552930817878 23.522718601142515 30.894909000817847 16.30340042114267 30.894909000817847 16.30340042114267 C30.894909000817847 16.30340042114267 29.91904090081789 15.340900421142578 29.91904090081789 15.340900421142578 Z" vector-effect="non-scaling-stroke"/></g></g></svg>