<svg version="1.2" xmlns="http://www.w3.org/2000/svg" xmlns:xlink="http://www.w3.org/1999/xlink" overflow="visible" preserveAspectRatio="none" viewBox="0 0 16.8 16.199999999999996" width="16.8" height="16.199999999999996"><g transform="translate(0, 0)"><g transform="translate(-1.3322676295501878e-15, -2.220446049250313e-15) rotate(0)"><path d="M14.2,10.9c-0.8,0 -1.5,0.3 -1.9,0.9l-7,-3.7c0,0 0,0 0,-0.1c0,-0.1 0,0 0,-0.1l7,-3.7c0.5,0.5 1.2,0.9 1.9,0.9c1.4,0 2.6,-1.2 2.6,-2.6c0,-1.4 -1.2,-2.5 -2.6,-2.5c-1.4,0 -2.6,1.2 -2.6,2.6v0.1l-7,3.7c-0.5,-0.6 -1.2,-0.9 -2,-0.9c-1.4,0 -2.6,1.2 -2.6,2.6c0,1.4 1.2,2.6 2.6,2.6c0.8,0 1.5,-0.4 2,-0.9l7,3.7v0.1c0,1.4 1.2,2.6 2.6,2.6c1.4,0 2.6,-1.2 2.6,-2.6c0,-1.4 -1.2,-2.7 -2.6,-2.7zM14.2,1.7c0.5,0 0.9,0.4 0.9,0.9c0,0.5 -0.4,0.9 -0.9,0.9c-0.5,0 -0.9,-0.4 -0.9,-0.9c0,-0.5 0.4,-0.9 0.9,-0.9zM2.6,8.9c-0.5,0 -0.9,-0.4 -0.9,-0.9c0,-0.5 0.4,-0.9 0.9,-0.9c0.5,0 0.9,0.4 0.9,0.9c0,0.5 -0.4,0.9 -0.9,0.9zM14.2,14.3c-0.5,0 -0.9,-0.4 -0.9,-0.9c0,-0.5 0.4,-0.9 0.9,-0.9c0.5,0 0.9,0.4 0.9,0.9c-0.1,0.5 -0.4,0.9 -0.9,0.9z" style="stroke-width: 0; stroke-linecap: butt; stroke-linejoin: miter; fill: rgb(0, 0, 0);" vector-effect="non-scaling-stroke"/></g><defs><path id="path-1631641758138107" d="M14.2,10.9c-0.8,0 -1.5,0.3 -1.9,0.9l-7,-3.7c0,0 0,0 0,-0.1c0,-0.1 0,0 0,-0.1l7,-3.7c0.5,0.5 1.2,0.9 1.9,0.9c1.4,0 2.6,-1.2 2.6,-2.6c0,-1.4 -1.2,-2.5 -2.6,-2.5c-1.4,0 -2.6,1.2 -2.6,2.6v0.1l-7,3.7c-0.5,-0.6 -1.2,-0.9 -2,-0.9c-1.4,0 -2.6,1.2 -2.6,2.6c0,1.4 1.2,2.6 2.6,2.6c0.8,0 1.5,-0.4 2,-0.9l7,3.7v0.1c0,1.4 1.2,2.6 2.6,2.6c1.4,0 2.6,-1.2 2.6,-2.6c0,-1.4 -1.2,-2.7 -2.6,-2.7zM14.2,1.7c0.5,0 0.9,0.4 0.9,0.9c0,0.5 -0.4,0.9 -0.9,0.9c-0.5,0 -0.9,-0.4 -0.9,-0.9c0,-0.5 0.4,-0.9 0.9,-0.9zM2.6,8.9c-0.5,0 -0.9,-0.4 -0.9,-0.9c0,-0.5 0.4,-0.9 0.9,-0.9c0.5,0 0.9,0.4 0.9,0.9c0,0.5 -0.4,0.9 -0.9,0.9zM14.2,14.3c-0.5,0 -0.9,-0.4 -0.9,-0.9c0,-0.5 0.4,-0.9 0.9,-0.9c0.5,0 0.9,0.4 0.9,0.9c-0.1,0.5 -0.4,0.9 -0.9,0.9z" vector-effect="non-scaling-stroke"/></defs></g></svg>