<svg version="1.2" xmlns="http://www.w3.org/2000/svg" xmlns:xlink="http://www.w3.org/1999/xlink" overflow="visible" preserveAspectRatio="none" viewBox="0 0 76 76" id="Layer_1_1582039924095" width="14" height="14"><g transform="translate(1, 1)"><defs><style>.cls-1_1582039924095{fill:#fff;}</style></defs><path transform="translate(0 -0.32)" d="M65.72,66.05H8.28V8.6h30V.32H7.79A7.8,7.8,0,0,0,0,8.11V66.53a7.79,7.79,0,0,0,7.79,7.79H66.21A7.79,7.79,0,0,0,74,66.53V35.9H65.72Z" class="cls-1_1582039924095" vector-effect="non-scaling-stroke" style="fill: rgb(208, 74, 2);"/><path transform="translate(0 -0.32)" d="M48.37.32a4.14,4.14,0,0,0,0,8.28h11.5L25,43.51l5.85,5.85L65.72,14.45V26A4.14,4.14,0,0,0,74,26V.32Z" class="cls-1_1582039924095" vector-effect="non-scaling-stroke" style="fill: rgb(224, 48, 30);"/></g></svg>