<?xml version="1.0" encoding="utf-8"?>
<!-- Generator: Adobe Illustrator 21.1.0, SVG Export Plug-In . SVG Version: 6.00 Build 0)  -->
<svg version="1.1" id="Layer_1" xmlns="http://www.w3.org/2000/svg" xmlns:xlink="http://www.w3.org/1999/xlink" x="0px" y="0px"
	 viewBox="0 0 32.6 30" style="enable-background:new 0 0 32.6 30;" xml:space="preserve">
<style type="text/css">
	.st0{fill:#FFFFFF;}
</style>
<g>
	<g>
		<g>
			<g>
				<path class="st0" d="M29.7,29.8H3c-1.5,0-2.6-1.2-2.6-2.6V2.9c0-1.5,1.2-2.6,2.6-2.6h26.7c1.5,0,2.6,1.2,2.6,2.6v24.3
					C32.3,28.6,31.1,29.8,29.7,29.8z M3,2C2.5,2,2.1,2.4,2.1,2.9v24.3C2.1,27.6,2.5,28,3,28h26.7c0.5,0,0.9-0.4,0.9-0.9V2.9
					c0-0.5-0.4-0.9-0.9-0.9L3,2L3,2z"/>
			</g>
		</g>
		<g>
			<g>
				<path class="st0" d="M16.3,20.2c-0.2,0-0.5-0.1-0.6-0.3L0.7,5L2,3.8l14.3,14.3L30.7,3.7l1.2,1.2l-15,15
					C16.8,20.1,16.5,20.2,16.3,20.2z"/>
			</g>
		</g>
	</g>
</g>
</svg>
