<?xml version="1.0" encoding="utf-8"?>
<!-- Generator: Adobe Illustrator 22.0.1, SVG Export Plug-In . SVG Version: 6.00 Build 0)  -->
<svg version="1.1" id="Layer_1" xmlns="http://www.w3.org/2000/svg" xmlns:xlink="http://www.w3.org/1999/xlink" x="0px" y="0px"
	 viewBox="0 0 30 30" style="enable-background:new 0 0 30 30; fill: #6d6e71;" xml:space="preserve">
<path class="st0" d="M25.805,8.271v19.176c0,0.802-0.649,1.451-1.451,1.451H6.396c-0.801,0-1.451-0.649-1.451-1.451V2.307
	c0-0.802,0.65-1.451,1.451-1.451H18.39l1.451,1.451l4.512,4.512L25.805,8.271z M15.375,18.391h-7.62
	c-0.401,0-0.726,0.325-0.726,0.726c0,0.4,0.324,0.726,0.726,0.726h7.62c0.401,0,0.726-0.325,0.726-0.726
	C16.101,18.716,15.776,18.391,15.375,18.391z M23.721,26.152c0-0.4-0.324-0.726-0.726-0.726H7.755c-0.401,0-0.726,0.325-0.726,0.726
	c0,0.401,0.324,0.726,0.726,0.726h15.24C23.396,26.878,23.721,26.553,23.721,26.152z M23.721,22.634c0-0.4-0.324-0.726-0.726-0.726
	H7.755c-0.401,0-0.726,0.325-0.726,0.726c0,0.4,0.324,0.726,0.726,0.726h15.24C23.396,23.36,23.721,23.035,23.721,22.634z
	 M24.362,8.711l-1.635-1.635h-2.152V4.925L18.94,3.291v5.421H24.362z"/>
</svg>
