<?xml version="1.0" encoding="utf-8"?>
<!-- Generator: Adobe Illustrator 23.0.0, SVG Export Plug-In . SVG Version: 6.00 Build 0)  -->
<svg version="1.1" id="Layer_1" xmlns="http://www.w3.org/2000/svg" xmlns:xlink="http://www.w3.org/1999/xlink" x="0px" y="0px"
	 viewBox="0 0 264.3 350.3" style="enable-background:new 0 0 264.3 350.3;" xml:space="preserve">
<style type="text/css">
	.st0{fill:#FFFFFF;}
	.st1{fill:#CCCCCC;}
	.st2{fill:#F2F2F2;}
	.st3{fill:#6D6E71;}
	.st4{fill:none;}
	.st5{clip-path:url(#SVGID_2_);}
</style>
<g>
	<polygon class="st0" points="33.3,295.9 263.3,295.9 263.3,0.9 33.3,0.9 	"/>
</g>
<g>
	<g>
		<path class="st1" d="M157.5,206.1H56.6c-2.5,0-4.5-2-4.5-4.5s2-4.5,4.5-4.5h100.9c2.5,0,4.5,2,4.5,4.5S160,206.1,157.5,206.1z
			 M242.3,184.7H56.6c-2.5,0-4.5-2-4.5-4.5s2-4.5,4.5-4.5h185.7c2.5,0,4.5,2,4.5,4.5S244.8,184.7,242.3,184.7z M242.3,162.5H56.6
			c-2.5,0-4.5-2-4.5-4.5s2-4.5,4.5-4.5h185.7c2.5,0,4.5,2,4.5,4.5S244.8,162.5,242.3,162.5z"/>
	</g>
</g>
<g>
	<rect x="33.3" y="0.9" class="st2" width="230" height="131"/>
</g>
<g>
	<path class="st1" d="M262.3,1.9v293h-228V1.9H262.3 M263.3,0.9h-230v295h230V0.9L263.3,0.9z"/>
</g>
<g>
	<path class="st3" d="M61.3,348.6c-33.2,0-60.1-27-60.1-60.1s27-60.1,60.1-60.1s60.1,27,60.1,60.1S94.5,348.6,61.3,348.6z
		 M61.3,231.4c-31.5,0-57.1,25.6-57.1,57.1s25.6,57.1,57.1,57.1s57.1-25.6,57.1-57.1S92.8,231.4,61.3,231.4z"/>
</g>
<g>
	<circle class="st4" cx="61.3" cy="288.5" r="58.6"/>
</g>
<g>
	<g>
		<defs>
			<circle id="SVGID_1_" cx="61.3" cy="288.5" r="58.6"/>
		</defs>
		<clipPath id="SVGID_2_">
			<use xlink:href="#SVGID_1_"  style="overflow:visible;"/>
		</clipPath>
		<g class="st5">
			<g>
				<rect x="19.7" y="216.3" class="st0" width="109.2" height="99.2"/>
			</g>
			<g>
				<path class="st3" d="M127.9,217.3v97.2H20.7v-97.2L127.9,217.3 M129.9,215.3H18.7v101.2h111.2L129.9,215.3L129.9,215.3z"/>
			</g>
		</g>
	</g>
</g>
<g>
	<path class="st3" d="M61.3,348.6c-33.2,0-60.1-27-60.1-60.1s27-60.1,60.1-60.1s60.1,27,60.1,60.1S94.5,348.6,61.3,348.6z
		 M61.3,231.4c-31.5,0-57.1,25.6-57.1,57.1s25.6,57.1,57.1,57.1s57.1-25.6,57.1-57.1S92.8,231.4,61.3,231.4z"/>
</g>
<g>
	<path class="st3" d="M63.1,293.8c-0.2,0-0.5-0.1-0.7-0.2l-8.8-4.7c-0.1-0.1-0.4-0.1-0.5,0l-8.8,4.7c-0.5,0.3-1.1,0.2-1.5,0
		c-0.4-0.3-0.6-0.8-0.5-1.4l1.7-9.9c0-0.1-0.1-0.4-0.1-0.5l-7.1-7c-0.4-0.4-0.6-0.9-0.4-1.4c0.2-0.5,0.6-0.8,1.2-0.9l9.8-1.4
		c0.1,0,0.3-0.2,0.4-0.3l4.4-9c0.3-0.5,0.7-0.8,1.2-0.8h0c0.5,0,1,0.3,1.2,0.8l4.4,9c0,0.1,0.3,0.3,0.4,0.3l9.8,1.4
		c0.6,0.1,1,0.4,1.2,0.9c0.2,0.5,0,1-0.4,1.4l-7.1,7c-0.1,0.1-0.2,0.3-0.1,0.5l1.7,9.9c0.1,0.6-0.1,1.1-0.5,1.4
		C63.6,293.7,63.4,293.8,63.1,293.8L63.1,293.8z M39,274.3l6.3,6.2c0.5,0.5,0.8,1.4,0.7,2.2l-1.5,8.7l7.8-4.1c0.6-0.4,1.6-0.4,2.3,0
		l7.8,4.1l-1.5-8.7c-0.1-0.7,0.2-1.6,0.7-2.2l6.3-6.2l-8.7-1.3c-0.7-0.1-1.5-0.7-1.8-1.3l-3.9-8l-3.9,8c-0.3,0.7-1.1,1.2-1.8,1.3
		L39,274.3L39,274.3z M53.9,262.6L53.9,262.6L53.9,262.6L53.9,262.6L53.9,262.6z M52.8,262.6L52.8,262.6L52.8,262.6L52.8,262.6z"/>
</g>
</svg>
