<?xml version="1.0" encoding="utf-8"?>
<!-- Generator: Adobe Illustrator 23.0.1, SVG Export Plug-In . SVG Version: 6.00 Build 0)  -->
<svg version="1.1" id="Layer_1" xmlns="http://www.w3.org/2000/svg" xmlns:xlink="http://www.w3.org/1999/xlink" x="0px" y="0px"
	 viewBox="0 0 74 74" style="enable-background:new 0 0 74 74;" xml:space="preserve">
<g>
	<path d="M62.1,50.4c-3.8,0-7.1,1.9-9.1,4.8L22.5,39.8c0.2-0.9,0.4-1.8,0.4-2.7c0-1-0.1-2-0.4-2.9l30.3-15.4c2,2.9,5.3,4.9,9.1,4.9
		c6,0,10.9-4.9,10.9-10.9s-5-11.1-11-11.1S50.9,6.6,50.9,12.6c0,0.6,0.1,1.3,0.2,1.9L20.4,30.1c-2-2.4-5.1-4-8.5-4
		C5.9,26.1,1,31,1,37s4.9,10.9,10.9,10.9c3.5,0,6.6-1.6,8.6-4.2l30.8,15.6c-0.1,0.6-0.2,1.3-0.2,1.9c0,6,4.9,10.9,10.9,10.9
		s10.9-4.9,10.9-10.9C73,55.3,68.1,50.4,62.1,50.4z M61.8,6.2c3.6,0,6.4,2.9,6.4,6.4S65.3,19,61.8,19s-6.4-2.9-6.4-6.4
		C55.4,9.1,58.2,6.2,61.8,6.2z M11.9,43.4c-3.6,0-6.4-2.9-6.4-6.4s2.9-6.4,6.4-6.4s6.4,2.9,6.4,6.4C18.4,40.6,15.5,43.4,11.9,43.4z
		 M62.1,67.8c-3.6,0-6.4-2.9-6.4-6.4c0-3.6,2.9-6.4,6.4-6.4c3.6,0,6.4,2.9,6.4,6.4S65.6,67.8,62.1,67.8z"/>
</g>
</svg>
