<svg id="Layer_1" data-name="Layer 1" xmlns="http://www.w3.org/2000/svg" viewBox="0 0 74 74"><defs><style>.cls-1{fill:#2d2d2d;}</style></defs><title>Star</title><g id="Page-1"><path id="Star-Copy" class="cls-1" d="M48.62,44.19,64.75,31.4l-20.57-.86L37,11.24l-7.18,19.3L9.25,31.4,25.38,44.19,19.85,64,37,52.63,54.15,64ZM37,58.45,19.76,69.91c-4.47,3-6.92,1.17-5.48-4L19.85,46,3.62,33.13C-.58,29.8.37,26.92,5.71,26.69l20.69-.86L33.62,6.42c1.87-5,4.9-5,6.76,0L47.6,25.83l20.69.86c5.35.23,6.28,3.12,2.09,6.44L54.15,46l5.57,19.94c1.44,5.16-1,6.94-5.48,4Z"/></g></svg>