<?xml version="1.0" encoding="utf-8"?>
<!-- Generator: Adobe Illustrator 21.1.0, SVG Export Plug-In . SVG Version: 6.00 Build 0)  -->
<svg version="1.1" id="Layer_1" xmlns="http://www.w3.org/2000/svg" xmlns:xlink="http://www.w3.org/1999/xlink" x="0px" y="0px"
	 viewBox="0 0 30 30" style="enable-background:new 0 0 30 30; fill: #6d6e71;" xml:space="preserve">
<g>
	<g>
		<path d="M27.289,6.793c0-1.321-1.074-2.395-2.395-2.395h-3.571V2.395C21.323,1.074,20.248,0,18.927,0h-8.153
			C9.454,0,8.38,1.074,8.38,2.395v2.002H5.106c-1.321,0-2.395,1.074-2.395,2.561c0,1.321,1.074,2.395,2.395,2.395h0.056
			l0.894,18.251C6.056,28.926,7.13,30,8.451,30H21.55c1.321,0,2.395-1.074,2.394-2.352L24.931,9.35
			C26.234,9.329,27.289,8.265,27.289,6.793z M9.976,2.395c0-0.44,0.359-0.798,0.798-0.798h8.153c0.44,0,0.798,0.359,0.798,0.798
			v2.002H9.976V2.395z M22.349,27.605c0,0.44-0.359,0.798-0.798,0.798H8.451c-0.44,0-0.798-0.359-0.8-0.837L6.76,9.353h16.572
			L22.349,27.605z M24.894,7.757H5.106c-0.44,0-0.798-0.359-0.798-0.964c0-0.44,0.359-0.798,0.798-0.798h19.787
			c0.44,0,0.798,0.359,0.798,0.964C25.692,7.398,25.333,7.757,24.894,7.757z"/>
	</g>
	<g>
		<path d="M10.433,11.354c-0.441,0.02-0.781,0.395-0.759,0.834l0.624,13.046c0.02,0.429,0.373,0.761,0.797,0.761
			c0.012,0,0.025,0,0.037-0.002c0.441-0.02,0.781-0.395,0.759-0.834l-0.624-13.046C11.246,11.672,10.853,11.289,10.433,11.354z"/>
	</g>
	<g>
		<path d="M19.546,11.354c-0.443-0.056-0.814,0.318-0.834,0.759L18.088,25.16c-0.022,0.44,0.318,0.814,0.759,0.834
			c0.012,0.002,0.025,0.002,0.037,0.002c0.424,0,0.777-0.332,0.797-0.761l0.624-13.046C20.328,11.749,19.988,11.374,19.546,11.354z"
			/>
	</g>
	<g>
		<path d="M15.005,11.353c-0.441,0-0.798,0.357-0.798,0.798v13.046c0,0.441,0.357,0.798,0.798,0.798
			c0.441,0,0.798-0.357,0.798-0.798V12.151C15.804,11.71,15.447,11.353,15.005,11.353z"/>
	</g>
</g>
</svg>
