<svg xmlns="http://www.w3.org/2000/svg" viewBox="0 0 31.6 25.58">
  <defs><style>.cls-1 {fill: #fff;}</style></defs>
  <path class="cls-1" d="M31.52,3A12.66,12.66,0,0,1,27.8,4,6.48,6.48,0,0,0,30.65.4,12.74,12.74,0,0,1,26.53,2a6.49,6.49,0,0,0-11,5.91A18.4,18.4,0,0,1,2.17,1.11a6.49,6.49,0,0,0,2,8.65A6.33,6.33,0,0,1,1.23,9V9a6.47,6.47,0,0,0,5.2,6.35,6.45,6.45,0,0,1-2.93.11A6.48,6.48,0,0,0,9.55,20a13,13,0,0,1-8,2.77A13.3,13.3,0,0,1,0,22.67a18.22,18.22,0,0,0,9.93,2.91c11.92,0,18.44-9.87,18.44-18.44V6.3A13.07,13.07,0,0,0,31.6,2.94"/>
</svg>
