<svg xmlns="http://www.w3.org/2000/svg" viewBox="0 0 32 25.93">
  <defs><style>.cls-1 {fill: #fff;}</style></defs>
  <path class="cls-1" d="M13.44,24c-5.3.52-9.87-1.88-10.22-5.35s3.68-6.72,9-7.24,9.88,1.87,10.22,5.35S18.74,23.51,13.44,24ZM24,12.49c-.45-.14-.76-.23-.53-.82a3.34,3.34,0,0,0,0-3.19c-1-1.48-3.88-1.41-7.14,0,0,0-1,.45-.76-.36.5-1.61.42-3-.36-3.74-1.77-1.77-6.47.07-10.5,4.1-3,3-4.76,6.21-4.76,9,0,5.29,6.79,8.51,13.43,8.51,8.69,0,14.49-5.06,14.49-9.07,0-2.43-2-3.81-3.88-4.38Z"/>
  <path class="cls-1" d="M29.82,2.8A8.46,8.46,0,0,0,21.76.19h0a1.21,1.21,0,0,0-.94,1.45,1.21,1.21,0,0,0,1.45.93,6,6,0,0,1,7,7.75h0a1.23,1.23,0,0,0,2.34.75h0A8.45,8.45,0,0,0,29.82,2.8Z"/>
  <path class="cls-1" d="M26.59,5.72a4.12,4.12,0,0,0-3.93-1.27,1.05,1.05,0,0,0,.44,2.06h0A2,2,0,0,1,25.44,9.1h0a1.06,1.06,0,0,0,2,.65,4.12,4.12,0,0,0-.86-4Z"/>
  <path class="cls-1" d="M13.74,17.74a.77.77,0,0,1-.91.33.53.53,0,0,1-.24-.79.78.78,0,0,1,.9-.34.54.54,0,0,1,.25.8ZM12,19.9a2,2,0,0,1-2.43.8,1.41,1.41,0,0,1-.55-2.12,2,2,0,0,1,2.39-.81A1.41,1.41,0,0,1,12,19.9ZM14,14.11a5.76,5.76,0,0,0-6.46,2.82A3.94,3.94,0,0,0,10,22.54a5.73,5.73,0,0,0,6.83-2.9A4,4,0,0,0,14,14.11Z"/>
</svg>
