<svg version="1.2" xmlns="http://www.w3.org/2000/svg" xmlns:xlink="http://www.w3.org/1999/xlink" overflow="visible" preserveAspectRatio="none" viewBox="0 0 8 12" width="8" height="12"><g transform="translate(0, 0)"><defs><path id="path-1670852554081117069" d="M2.021402022847519 11.720100499364914 C2.021402022847519 11.720100499364914 7.987345493057211 6.029106255171725 7.987345493057211 6.029106255171725 C7.987345493057211 6.029106255171725 2.021402022847519 0.3381120109785359 2.021402022847519 0.3381120109785359 C1.5527695069580143 -0.04505875409948889 0.8542212086248581 -0.020693942469830834 0.41617540843527134 0.3941010444875913 C-0.021870391754315984 0.8088960314450133 -0.05255066439699966 1.4750534333738203 0.3456737834209735 1.92489511200652 C0.3456737834209735 1.92489511200652 4.639398392716007 6.025758611498671 4.639398392716007 6.025758611498671 C4.639398392716007 6.025758611498671 0.3456737834209735 10.126622110990823 0.3456737834209735 10.126622110990823 C0.0396064582319711 10.410798815223233 -0.08236131302284697 10.83015803030909 0.02646860025810945 11.224138558863343 C0.13529851353906555 11.618119087417595 0.4580675567154745 11.925690445563006 0.8711962728756256 12.029091955177684 C1.2843249890357762 12.132493464792361 1.723816699096672 12.01570747092118 2.0214020228475196 11.723448143037968" vector-effect="non-scaling-stroke"/></defs><g transform="translate(0.012654506942788498, -0.06611106522062878)"><path d="M2.021402022847519 11.720100499364914 C2.021402022847519 11.720100499364914 7.987345493057211 6.029106255171725 7.987345493057211 6.029106255171725 C7.987345493057211 6.029106255171725 2.021402022847519 0.3381120109785359 2.021402022847519 0.3381120109785359 C1.5527695069580143 -0.04505875409948889 0.8542212086248581 -0.020693942469830834 0.41617540843527134 0.3941010444875913 C-0.021870391754315984 0.8088960314450133 -0.05255066439699966 1.4750534333738203 0.3456737834209735 1.92489511200652 C0.3456737834209735 1.92489511200652 4.639398392716007 6.025758611498671 4.639398392716007 6.025758611498671 C4.639398392716007 6.025758611498671 0.3456737834209735 10.126622110990823 0.3456737834209735 10.126622110990823 C0.0396064582319711 10.410798815223233 -0.08236131302284697 10.83015803030909 0.02646860025810945 11.224138558863343 C0.13529851353906555 11.618119087417595 0.4580675567154745 11.925690445563006 0.8711962728756256 12.029091955177684 C1.2843249890357762 12.132493464792361 1.723816699096672 12.01570747092118 2.0214020228475196 11.723448143037968" style="stroke-width: 0; fill: rgb(0, 0, 0);" vector-effect="non-scaling-stroke"/></g></g></svg>