<svg xmlns="http://www.w3.org/2000/svg" width="18" height="19.779" viewBox="0 0 18 19.779">
  <path id="Path_33374" data-name="Path 33374" d="M24.937,25.225l11.5-6.57-.788-1.512-11.5,6.768Zm-.788,0,11.5,6.766.788-1.51-11.5-6.57Zm3.679-.657a3.294,3.294,0,0,0-3.285-3.285,3.252,3.252,0,1,0,3.285,3.285Zm11.5-6.637a3.3,3.3,0,0,0-3.285-3.285,3.253,3.253,0,1,0,3.285,3.285Zm0,13.272a3.3,3.3,0,0,0-3.285-3.285,3.253,3.253,0,0,0,0,6.505A3.2,3.2,0,0,0,39.325,31.2Z" transform="translate(-21.325 -14.646)" fill="#fff"/>
</svg>