<svg xmlns="http://www.w3.org/2000/svg" xmlns:xlink="http://www.w3.org/1999/xlink" version="1.1" id="Layer_1" x="0" y="0" viewBox="0 0 30 30" xml:space="preserve">
  <defs>
    <path id="SVGID_1_" d="M0 0h30v30H0z"/>
  </defs>
  <clipPath id="SVGID_2_">
    <use xlink:href="#SVGID_1_" overflow="visible"/>
  </clipPath>
  <g id="Link_Fill" clip-path="url(#SVGID_2_)">
    <path id="Path_36133" d="m18 16 4.4-4.4-4-4L14 12l-2-2 5.4-5.4c.5-.5 1.4-.6 2 0l5.9 5.9c.5.5.6 1.4 0 2L20 18l-2-2zm-2 2 2 2-5.4 5.4c-.5.5-1.4.6-2 0l-5.9-5.9c-.5-.5-.6-1.4 0-2l5.4-5.4 2 2-4.4 4.4 4 4L16 18zm-6.4.4 8.9-8.9 2 2-8.9 8.9-2-2z" fill="#fff"/>
  </g>
</svg>