<svg version="1.2" xmlns="http://www.w3.org/2000/svg" xmlns:xlink="http://www.w3.org/1999/xlink" overflow="visible" preserveAspectRatio="none" viewBox="0 0 14.20118343195266 10" width="14.20118343195266" height="10"><g transform="translate(0, 0)"><defs><path id="path-171994218484948213" d="M13.570019723865874 0 C13.570019723865874 0 4.832347140039447 8.73767258382643 4.832347140039447 8.73767258382643 C4.832347140039447 8.73767258382643 0.6311637080867848 4.536489151873767 0.6311637080867848 4.536489151873767 C0.6311637080867848 4.536489151873767 0 5.167652859960552 0 5.167652859960552 C0 5.167652859960552 4.832347140039447 10 4.832347140039447 10 C4.832347140039447 10 14.20118343195266 0.6508875739644965 14.20118343195266 0.6508875739644965 C14.20118343195266 0.6508875739644965 13.570019723865874 0 13.570019723865874 0 Z" vector-effect="non-scaling-stroke"/></defs><g transform="translate(0, 0)"><path style="stroke: rgb(140, 140, 140); stroke-width: 0; stroke-linecap: butt; stroke-linejoin: miter; fill: rgb(255, 255, 255);" d="M13.570019723865874 0 C13.570019723865874 0 4.832347140039447 8.73767258382643 4.832347140039447 8.73767258382643 C4.832347140039447 8.73767258382643 0.6311637080867848 4.536489151873767 0.6311637080867848 4.536489151873767 C0.6311637080867848 4.536489151873767 0 5.167652859960552 0 5.167652859960552 C0 5.167652859960552 4.832347140039447 10 4.832347140039447 10 C4.832347140039447 10 14.20118343195266 0.6508875739644965 14.20118343195266 0.6508875739644965 C14.20118343195266 0.6508875739644965 13.570019723865874 0 13.570019723865874 0 Z" vector-effect="non-scaling-stroke"/></g></g></svg>