<svg version="1.2" xmlns="http://www.w3.org/2000/svg" xmlns:xlink="http://www.w3.org/1999/xlink" overflow="visible" preserveAspectRatio="none" viewBox="0 0 15 15" width="15" height="15"><g transform="translate(0, 0)"><defs><path id="path-1714028828210221095" d="M14.125 0 C14.125 0 7.5 6.625 7.5 6.625 C7.5 6.625 0.8749999999999998 0 0.8749999999999998 0 C0.8749999999999998 0 0 0.8749999999999998 0 0.8749999999999998 C0 0.8749999999999998 6.625 7.5 6.625 7.5 C6.625 7.5 0 14.125 0 14.125 C0 14.125 0.8749999999999998 15 0.8749999999999998 15 C0.8749999999999998 15 7.5 8.375 7.5 8.375 C7.5 8.375 14.125 15 14.125 15 C14.125 15 15 14.125 15 14.125 C15 14.125 8.375 7.5 8.375 7.5 C8.375 7.5 15 0.8749999999999998 15 0.8749999999999998 C15 0.8749999999999998 14.125 0 14.125 0 Z" vector-effect="non-scaling-stroke"/></defs><g transform="translate(0, 0)"><path style="stroke: rgb(140, 140, 140); stroke-width: 0; stroke-linecap: butt; stroke-linejoin: miter; fill: rgb(255, 255, 255);" d="M14.125 0 C14.125 0 7.5 6.625 7.5 6.625 C7.5 6.625 0.8749999999999998 0 0.8749999999999998 0 C0.8749999999999998 0 0 0.8749999999999998 0 0.8749999999999998 C0 0.8749999999999998 6.625 7.5 6.625 7.5 C6.625 7.5 0 14.125 0 14.125 C0 14.125 0.8749999999999998 15 0.8749999999999998 15 C0.8749999999999998 15 7.5 8.375 7.5 8.375 C7.5 8.375 14.125 15 14.125 15 C14.125 15 15 14.125 15 14.125 C15 14.125 8.375 7.5 8.375 7.5 C8.375 7.5 15 0.8749999999999998 15 0.8749999999999998 C15 0.8749999999999998 14.125 0 14.125 0 Z" vector-effect="non-scaling-stroke"/></g></g></svg>