<svg height="14" overflow="visible" viewBox="0 0 13.999999999999545 14" width="13.999999999999545" xmlns="http://www.w3.org/2000/svg"><g><defs><path id="path-171656592885243815" d="M0 6.222222222222223 C0 6.222222222222223 0 2.204737536207292 0 2.204737536207292 C0 1.8311408013384418 0.3024645050151429 1.5286735950479244 0.6760579033647305 1.5286735950479244 C1.049651301714318 1.5286735950479244 1.352115806729461 1.8311408013384418 1.352115806729461 2.204737536207292 C1.352115806729461 2.204737536207292 1.352115806729461 3.913902310022735 1.352115806729461 3.913902310022735 C1.352115806729461 3.913902310022735 5.265983162457284 0 5.265983162457284 0 C5.265983162457284 0 6.222222222222227 0.9561920298807534 6.222222222222227 0.9561920298807534 C6.222222222222227 0.9561920298807534 2.308354866494403 4.870094339903488 2.308354866494403 4.870094339903488 C2.308354866494403 4.870094339903488 4.017448806646109 4.870094339903488 4.017448806646109 4.870094339903488 C4.3910422049956965 4.870094339903488 4.69350671001084 5.1725615461940055 4.69350671001084 5.546158281062856 C4.69350671001084 5.919755015931706 4.3910422049956965 6.222222222222223 4.017448806646109 6.222222222222223 C4.017448806646109 6.222222222222223 0 6.222222222222223 0 6.222222222222223 Z" vector-effect="non-scaling-stroke"/></defs> <path style="stroke: rgb(140, 140, 140); stroke-width: 0; stroke-linecap: butt; stroke-linejoin: miter; fill: rgb(224, 48, 30);" d="M0 14 C0 14 0 9.98251531398455 0 9.98251531398455 C0 9.608918579115198 0.30246450501522304 9.306451372825904 0.6760579033648355 9.306451372825904 C1.0496513017142206 9.306451372825904 1.3521158067294436 9.608918579115198 1.3521158067294436 9.98251531398455 C1.3521158067294436 9.98251531398455 1.3521158067294436 11.691680087800705 1.3521158067294436 11.691680087800705 C1.3521158067294436 11.691680087800705 5.26598316245736 7.777777777777374 5.26598316245736 7.777777777777374 C5.26598316245736 7.777777777777374 6.222222222222172 8.733969807657559 6.222222222222172 8.733969807657559 C6.222222222222172 8.733969807657559 2.308354866494483 12.64787211768089 2.308354866494483 12.64787211768089 C2.308354866494483 12.64787211768089 4.017448806646144 12.64787211768089 4.017448806646144 12.64787211768089 C4.391042204995756 12.64787211768089 4.693506710010752 12.950339323972003 4.693506710010752 13.323936058839536 C4.693506710010752 13.697532793708888 4.391042204995756 14 4.017448806646144 14 C4.017448806646144 14 0 14 0 14 Z" vector-effect="non-scaling-stroke"/></g><g><defs><path id="path-171656592885243813" d="M6.222222222222225 0 C6.222222222222225 0 6.222222222222225 4.017484686014932 6.222222222222225 4.017484686014932 C6.222222222222225 4.391081420883783 5.919755015931707 4.693548627174299 5.546213851007059 4.693548627174299 C5.172561546194006 4.693548627174299 4.870094339903489 4.391081420883783 4.870094339903489 4.017484686014932 C4.870094339903489 4.017484686014932 4.870094339903489 2.3083199121994884 4.870094339903489 2.3083199121994884 C4.870094339903489 2.3083199121994884 0.9561920298807545 6.222222222222225 0.9561920298807545 6.222222222222225 C0.9561920298807545 6.222222222222225 0 5.266030192341472 0 5.266030192341472 C0 5.266030192341472 3.9139023100227353 1.3521278823187355 3.9139023100227353 1.3521278823187355 C3.9139023100227353 1.3521278823187355 2.2047375362072916 1.3521278823187355 2.2047375362072916 1.3521278823187355 C1.8311408013384423 1.3521278823187355 1.528673595047924 1.0496606760282188 1.528673595047924 0.6760639411593677 C1.528673595047924 0.3024672062905185 1.8311408013384423 0 2.2047375362072916 0 C2.2047375362072916 0 6.222222222222225 0 6.222222222222225 0 Z" vector-effect="non-scaling-stroke"/></defs> <path style="stroke: rgb(140, 140, 140); stroke-width: 0; stroke-linecap: butt; stroke-linejoin: miter; fill: rgb(224, 48, 30);" d="M13.999999999999545 0 C13.999999999999545 0 13.999999999999545 4.01748468601545 13.999999999999545 4.01748468601545 C13.999999999999545 4.391081420882983 13.697532793709115 4.693548627174096 13.32399162878437 4.693548627174096 C12.95033932397132 4.693548627174096 12.64787211768089 4.391081420882983 12.64787211768089 4.01748468601545 C12.64787211768089 4.01748468601545 12.64787211768089 2.3083199121992948 12.64787211768089 2.3083199121992948 C12.64787211768089 2.3083199121992948 8.73396980765824 6.222222222222626 8.73396980765824 6.222222222222626 C8.73396980765824 6.222222222222626 7.777777777777374 5.266030192340622 7.777777777777374 5.266030192340622 C7.777777777777374 5.266030192340622 11.691680087800023 1.3521278823191096 11.691680087800023 1.3521278823191096 C11.691680087800023 1.3521278823191096 9.982515313984777 1.3521278823191096 9.982515313984777 1.3521278823191096 C9.60891857911588 1.3521278823191096 9.306451372825222 1.0496606760279974 9.306451372825222 0.6760639411586453 C9.306451372825222 0.30246720629111223 9.60891857911588 0 9.982515313984777 0 C9.982515313984777 0 13.999999999999545 0 13.999999999999545 0 Z" vector-effect="non-scaling-stroke"/></g></svg>