<svg height="15" overflow="visible" viewBox="0 0 3.75 15" width="3.75" xmlns="http://www.w3.org/2000/svg"><g><defs><path id="path-1713354772185245" d="M0,1.875c0,-1.03553 0.83947,-1.875 1.875,-1.875c1.03553,0 1.875,0.83947 1.875,1.875c0,1.03553 -0.83947,1.875 -1.875,1.875c-1.03553,0 -1.875,-0.83947 -1.875,-1.875zM3.75,7.5c0,1.03553 -0.83947,1.875 -1.875,1.875c-1.03553,0 -1.875,-0.83947 -1.875,-1.875c0,-1.03553 0.83947,-1.875 1.875,-1.875c1.03553,0 1.875,0.83947 1.875,1.875zM3.75,13.125c0,1.03553 -0.83947,1.875 -1.875,1.875c-1.03553,0 -1.875,-0.83947 -1.875,-1.875c0,-1.03553 0.83947,-1.875 1.875,-1.875c1.03553,0 1.875,0.83947 1.875,1.875z" vector-effect="non-scaling-stroke"/></defs><path style="stroke: rgb(140, 140, 140); stroke-width: 0; stroke-linecap: butt; stroke-linejoin: miter; fill: rgb(255, 255, 255);" d="M0,1.875c0,-1.03553 0.83947,-1.875 1.875,-1.875c1.03553,0 1.875,0.83947 1.875,1.875c0,1.03553 -0.83947,1.875 -1.875,1.875c-1.03553,0 -1.875,-0.83947 -1.875,-1.875zM3.75,7.5c0,1.03553 -0.83947,1.875 -1.875,1.875c-1.03553,0 -1.875,-0.83947 -1.875,-1.875c0,-1.03553 0.83947,-1.875 1.875,-1.875c1.03553,0 1.875,0.83947 1.875,1.875zM3.75,13.125c0,1.03553 -0.83947,1.875 -1.875,1.875c-1.03553,0 -1.875,-0.83947 -1.875,-1.875c0,-1.03553 0.83947,-1.875 1.875,-1.875c1.03553,0 1.875,0.83947 1.875,1.875z" transform="translate(0, 0) rotate(0)" vector-effect="non-scaling-stroke"/></g></svg>