<svg height="15" overflow="visible" viewBox="-1 -1 19.99999995999997 15" width="19.99999995999997" xmlns="http://www.w3.org/2000/svg"><g><defs><path id="path-171334230881762473" d="M0.4999847412109375 10.5 C0.4999847412109375 10.5 0.4999847412109375 0.5 0.4999847412109375 0.5 C0.4999847412109375 0.5 15.499984741210938 0.5 15.499984741210938 0.5 C15.499984741210938 0.5 15.499984741210938 10.5 15.499984741210938 10.5 C15.499984741210938 10.5 0.4999847412109375 10.5 0.4999847412109375 10.5 Z" vector-effect="non-scaling-stroke"/></defs> <path style="stroke: rgb(255, 255, 255); stroke-width: 1; stroke-linecap: butt; stroke-linejoin: miter; fill: none;" d="M0 10 C0 10 0 0 0 0 C0 0 15 0 15 0 C15 0 15 10 15 10 C15 10 0 10 0 10 Z" vector-effect="non-scaling-stroke"/></g><g><defs><path id="path-171334230881762471" d="M7.863621101210811 13.5 C7.863621101210811 13.5 7.863621101210811 6.5 7.863621101210811 6.5 C7.863621101210811 6.5 18.499984701210906 6.5 18.499984701210906 6.5 C18.499984701210906 6.5 18.499984701210906 13.5 18.499984701210906 13.5 C18.499984701210906 13.5 7.863621101210811 13.5 7.863621101210811 13.5 Z" vector-effect="non-scaling-stroke"/></defs> <path style="stroke: rgb(255, 255, 255); stroke-width: 1; stroke-linecap: butt; stroke-linejoin: miter; fill: rgb(255, 255, 255);" d="M7.363636359999873 13 C7.363636359999873 13 7.363636359999873 6 7.363636359999873 6 C7.363636359999873 6 17.99999995999997 6 17.99999995999997 6 C17.99999995999997 6 17.99999995999997 13 17.99999995999997 13 C17.99999995999997 13 7.363636359999873 13 7.363636359999873 13 Z" vector-effect="non-scaling-stroke"/></g></svg>