<svg version="1.2" xmlns="http://www.w3.org/2000/svg" xmlns:xlink="http://www.w3.org/1999/xlink" overflow="visible" preserveAspectRatio="none" viewBox="0 0 10 8" width="10" height="8"><g transform="translate(0, 0)"><g transform="rotate(0) translate(9,-1) translate(0, 0) rotate(-270)"><g transform="translate(0, 0)"><path style="stroke: rgb(140, 140, 140); stroke-width: 0; stroke-linecap: butt; stroke-linejoin: miter; fill: rgb(255, 255, 255);" d="M5.000000000001253 4.8595620606488137e-17 C5.000000000001253 4.8595620606488137e-17 10.000000000001242 7.999999999999997 10.000000000001242 7.999999999999997 C10.000000000001242 7.999999999999997 1.237651510203117e-12 7.999999999999997 1.237651510203117e-12 7.999999999999997 C1.237651510203117e-12 7.999999999999997 5.000000000001253 4.8595620606488137e-17 5.000000000001253 4.8595620606488137e-17 Z" vector-effect="non-scaling-stroke"/></g></g><defs><path id="path-172202195570397" d="M5.000000000001253 4.8595620606488137e-17 C5.000000000001253 4.8595620606488137e-17 10.000000000001242 7.999999999999997 10.000000000001242 7.999999999999997 C10.000000000001242 7.999999999999997 1.237651510203117e-12 7.999999999999997 1.237651510203117e-12 7.999999999999997 C1.237651510203117e-12 7.999999999999997 5.000000000001253 4.8595620606488137e-17 5.000000000001253 4.8595620606488137e-17 Z" vector-effect="non-scaling-stroke"/></defs></g></svg>