<svg version="1.2" xmlns="http://www.w3.org/2000/svg" xmlns:xlink="http://www.w3.org/1999/xlink" overflow="visible" preserveAspectRatio="none" viewBox="0 0 47 38" width="40" height="32"><g transform="translate(0, 0)"><defs><path id="path-1713431191093330179" d="M23.499999999999986 -6.762564364702051e-16 C23.499999999999986 -6.762564364702051e-16 46.999999999999986 37.99999999999999 46.999999999999986 37.99999999999999 C46.999999999999986 37.99999999999999 5.98540824746497e-17 37.99999999999999 5.98540824746497e-17 37.99999999999999 C5.98540824746497e-17 37.99999999999999 23.499999999999986 -6.762564364702051e-16 23.499999999999986 -6.762564364702051e-16 Z" vector-effect="non-scaling-stroke"/></defs><g transform="translate(0, 0)"><path style="stroke: rgb(140, 140, 140); stroke-width: 0; stroke-linecap: butt; stroke-linejoin: miter; fill: rgb(255, 255, 255);" d="M23.499999999999986 -6.762564364702051e-16 C23.499999999999986 -6.762564364702051e-16 46.999999999999986 37.99999999999999 46.999999999999986 37.99999999999999 C46.999999999999986 37.99999999999999 5.98540824746497e-17 37.99999999999999 5.98540824746497e-17 37.99999999999999 C5.98540824746497e-17 37.99999999999999 23.499999999999986 -6.762564364702051e-16 23.499999999999986 -6.762564364702051e-16 Z" vector-effect="non-scaling-stroke"/></g></g></svg>