<svg version="1.2" xmlns="http://www.w3.org/2000/svg" xmlns:xlink="http://www.w3.org/1999/xlink" overflow="visible" preserveAspectRatio="none" viewBox="0 0 6 11.01853375427704" width="6" height="11.01853375427704"><g transform="translate(0, 0)"><defs><path id="path-1714561882159193140" d="M0.10951911108604032 0.10062447630526418 C0.2438521456040042 -0.03354149210175481 0.46147188203916534 -0.03354149210175481 0.5958049165571303 0.10062447630526418 C0.5958049165571303 0.10062447630526418 6 5.5048195597481335 6 5.5048195597481335 C6 5.5048195597481335 0.5958049165571303 10.909014643191002 0.5958049165571303 10.909014643191002 C0.5100302568209736 11.001066333847042 0.38085028521117786 11.038958092604593 0.25894239449507267 11.00782495613171 C0.13703450377896742 10.976691819658823 0.04184193461821836 10.881499250498074 0.010708798145332262 10.759591359781968 C-0.020424338327552756 10.637683469065864 0.0174674204299984 10.508503497456067 0.10951911108604032 10.422728837719912 C0.10951911108604032 10.422728837719912 5.027428389057819 5.5048195597481335 5.027428389057819 5.5048195597481335 C5.027428389057819 5.5048195597481335 0.10951911108604032 0.5869102817763542 0.10951911108604032 0.5869102817763542 C-0.024646857320977857 0.45257724725838977 -0.024646857320977857 0.23495751082322838 0.10951911108604032 0.10062447630526418 Z" vector-effect="non-scaling-stroke"/></defs><g transform="translate(0, 0)"><path style="stroke: rgb(140, 140, 140); stroke-width: 0; stroke-linecap: butt; stroke-linejoin: miter; fill: rgb(255, 255, 255);" d="M0.10951911108604032 0.10062447630526418 C0.2438521456040042 -0.03354149210175481 0.46147188203916534 -0.03354149210175481 0.5958049165571303 0.10062447630526418 C0.5958049165571303 0.10062447630526418 6 5.5048195597481335 6 5.5048195597481335 C6 5.5048195597481335 0.5958049165571303 10.909014643191002 0.5958049165571303 10.909014643191002 C0.5100302568209736 11.001066333847042 0.38085028521117786 11.038958092604593 0.25894239449507267 11.00782495613171 C0.13703450377896742 10.976691819658823 0.04184193461821836 10.881499250498074 0.010708798145332262 10.759591359781968 C-0.020424338327552756 10.637683469065864 0.0174674204299984 10.508503497456067 0.10951911108604032 10.422728837719912 C0.10951911108604032 10.422728837719912 5.027428389057819 5.5048195597481335 5.027428389057819 5.5048195597481335 C5.027428389057819 5.5048195597481335 0.10951911108604032 0.5869102817763542 0.10951911108604032 0.5869102817763542 C-0.024646857320977857 0.45257724725838977 -0.024646857320977857 0.23495751082322838 0.10951911108604032 0.10062447630526418 Z" vector-effect="non-scaling-stroke"/></g></g></svg>