<svg height="11.018533754277087" overflow="visible" viewBox="0 0 6 11.018533754277087" width="6" xmlns="http://www.w3.org/2000/svg"><g><defs><path id="path-1714480316943140311" d="M0.10951911108604032 0.10062447630526418 C0.2438521456040042 -0.03354149210175481 0.46147188203916534 -0.03354149210175481 0.5958049165571303 0.10062447630526418 C0.5958049165571303 0.10062447630526418 6 5.5048195597481335 6 5.5048195597481335 C6 5.5048195597481335 0.5958049165571303 10.909014643191002 0.5958049165571303 10.909014643191002 C0.5100302568209736 11.001066333847042 0.38085028521117786 11.038958092604593 0.25894239449507267 11.00782495613171 C0.13703450377896742 10.976691819658823 0.04184193461821836 10.881499250498074 0.010708798145332262 10.759591359781968 C-0.020424338327552756 10.637683469065864 0.0174674204299984 10.508503497456067 0.10951911108604032 10.422728837719912 C0.10951911108604032 10.422728837719912 5.027428389057819 5.5048195597481335 5.027428389057819 5.5048195597481335 C5.027428389057819 5.5048195597481335 0.10951911108604032 0.5869102817763542 0.10951911108604032 0.5869102817763542 C-0.024646857320977857 0.45257724725838977 -0.024646857320977857 0.23495751082322838 0.10951911108604032 0.10062447630526418 Z" vector-effect="non-scaling-stroke"/></defs> <path style="stroke: rgb(140, 140, 140); stroke-width: 0; stroke-linecap: butt; stroke-linejoin: miter; fill: rgb(255, 255, 255); transform-box: fill-box; transform-origin: center center; transform: rotate(-180deg);" d="M0.10951911108603696 0.1006244763052564 C0.24385214560400215 -0.03354149210179003 0.461471882039163 -0.03354149210179003 0.5958049165571282 0.1006244763052564 C0.5958049165571282 0.1006244763052564 6 5.504819559748171 6 5.504819559748171 C6 5.504819559748171 0.5958049165571282 10.909014643190972 0.5958049165571282 10.909014643190972 C0.5100302568209756 11.001066333847007 0.38085028521117437 11.038958092604616 0.2589423944950724 11.007824956131685 C0.13703450377897042 10.976691819658868 0.04184193461821906 10.88149925049811 0.010708798145330434 10.759591359782007 C-0.020424338327551084 10.637683469065905 0.017467420430001823 10.508503497456104 0.10951911108603696 10.422728837719887 C0.10951911108603696 10.422728837719887 5.0274283890578175 5.504819559748171 5.0274283890578175 5.504819559748171 C5.0274283890578175 5.504819559748171 0.10951911108603696 0.5869102817763405 0.10951911108603696 0.5869102817763405 C-0.02464685732098104 0.4525772472584322 -0.02464685732098104 0.23495751082327843 0.10951911108603696 0.1006244763052564 Z" vector-effect="non-scaling-stroke"/></g></svg>