<svg version="1.2" xmlns="http://www.w3.org/2000/svg" xmlns:xlink="http://www.w3.org/1999/xlink" overflow="visible" preserveAspectRatio="none" viewBox="0 0 14.00001 13.48146" width="14.00001" height="13.48146"><g transform="translate(0, 0)"><g transform="translate(0.000010000000001841869, -0.000009999999999621423) rotate(0)"><path style="stroke-width: 0; stroke-linecap: butt; stroke-linejoin: miter; fill: rgb(255, 255, 255);" d="M11.92593,12.44444c-0.57195,0 -1.03704,-0.46517 -1.03704,-1.03704c0,-0.57187 0.46508,-1.03704 1.03704,-1.03704c0.57195,0 1.03704,0.46517 1.03704,1.03704c0,0.57187 -0.46508,1.03704 -1.03704,1.03704zM2.07415,7.77778c-0.57191,0 -1.03712,-0.46533 -1.03712,-1.03704c0,-0.57187 0.46521,-1.03704 1.03712,-1.03704c0.57175,0 1.03696,0.46517 1.03696,1.03704c0,0.57171 -0.46521,1.03704 -1.03696,1.03704zM11.92593,1.03704c0.57195,0 1.03704,0.46533 1.03704,1.03704c0,0.57187 -0.46508,1.03704 -1.03704,1.03704c-0.57195,0 -1.03704,-0.46517 -1.03704,-1.03704c0,-0.57171 0.46508,-1.03704 1.03704,-1.03704zM11.94126,9.34473c-0.68962,0 -1.29971,0.34368 -1.6736,0.86816l-6.16272,-3.24712c0.00787,-0.07393 0.01269,-0.14884 0.01269,-0.22503c0,-0.07603 -0.00482,-0.15093 -0.01269,-0.22503l6.16256,-3.24728c0.37389,0.52464 0.98398,0.86832 1.67376,0.86832c1.13517,0 2.05874,-0.92789 2.05874,-2.06837c0,-1.14065 -0.92356,-2.06837 -2.05874,-2.06837c-1.13517,0 -2.05874,0.92773 -2.05874,2.06837c0,0.08168 0.00595,0.16191 0.0151,0.24117l-6.15581,3.24373c-0.37293,-0.5319 -0.98767,-0.88091 -1.68292,-0.88091c-1.13533,0 -2.0589,0.92789 -2.0589,2.06837c0,1.14065 0.92356,2.06837 2.0589,2.06837c0.69524,0 1.30983,-0.34885 1.68276,-0.88059l6.15597,3.24341c-0.00916,0.07926 -0.0151,0.15949 -0.0151,0.24117c0,1.14049 0.92356,2.06837 2.05874,2.06837c1.13517,0 2.05874,-0.92789 2.05874,-2.06837c0,-1.14065 -0.92356,-2.06837 -2.05874,-2.06837z" vector-effect="non-scaling-stroke"/></g><defs><path id="path-171334230885162652" d="M11.92593,12.44444c-0.57195,0 -1.03704,-0.46517 -1.03704,-1.03704c0,-0.57187 0.46508,-1.03704 1.03704,-1.03704c0.57195,0 1.03704,0.46517 1.03704,1.03704c0,0.57187 -0.46508,1.03704 -1.03704,1.03704zM2.07415,7.77778c-0.57191,0 -1.03712,-0.46533 -1.03712,-1.03704c0,-0.57187 0.46521,-1.03704 1.03712,-1.03704c0.57175,0 1.03696,0.46517 1.03696,1.03704c0,0.57171 -0.46521,1.03704 -1.03696,1.03704zM11.92593,1.03704c0.57195,0 1.03704,0.46533 1.03704,1.03704c0,0.57187 -0.46508,1.03704 -1.03704,1.03704c-0.57195,0 -1.03704,-0.46517 -1.03704,-1.03704c0,-0.57171 0.46508,-1.03704 1.03704,-1.03704zM11.94126,9.34473c-0.68962,0 -1.29971,0.34368 -1.6736,0.86816l-6.16272,-3.24712c0.00787,-0.07393 0.01269,-0.14884 0.01269,-0.22503c0,-0.07603 -0.00482,-0.15093 -0.01269,-0.22503l6.16256,-3.24728c0.37389,0.52464 0.98398,0.86832 1.67376,0.86832c1.13517,0 2.05874,-0.92789 2.05874,-2.06837c0,-1.14065 -0.92356,-2.06837 -2.05874,-2.06837c-1.13517,0 -2.05874,0.92773 -2.05874,2.06837c0,0.08168 0.00595,0.16191 0.0151,0.24117l-6.15581,3.24373c-0.37293,-0.5319 -0.98767,-0.88091 -1.68292,-0.88091c-1.13533,0 -2.0589,0.92789 -2.0589,2.06837c0,1.14065 0.92356,2.06837 2.0589,2.06837c0.69524,0 1.30983,-0.34885 1.68276,-0.88059l6.15597,3.24341c-0.00916,0.07926 -0.0151,0.15949 -0.0151,0.24117c0,1.14049 0.92356,2.06837 2.05874,2.06837c1.13517,0 2.05874,-0.92789 2.05874,-2.06837c0,-1.14065 -0.92356,-2.06837 -2.05874,-2.06837z" vector-effect="non-scaling-stroke"/></defs></g></svg>