<svg height="51" overflow="visible" viewBox="0 0 41 51" width="41" xmlns="http://www.w3.org/2000/svg"><g><defs><path id="path-1713952625452485133" d="M0 0 C0 0 13.666666666667208 0 13.666666666667208 0 C13.666666666667208 0 13.666666666667208 51.00000000000001 13.666666666667208 51.00000000000001 C13.666666666667208 51.00000000000001 0 51.00000000000001 0 51.00000000000001 C0 51.00000000000001 0 0 0 0 Z" vector-effect="non-scaling-stroke"/></defs> <path style="stroke: rgb(140, 140, 140); stroke-width: 0; stroke-linecap: butt; stroke-linejoin: miter; fill: rgb(255, 255, 255);" d="M27.333333333332803 0 C27.333333333332803 0 41 0 41 0 C41 0 41 51 41 51 C41 51 27.333333333332803 51 27.333333333332803 51 C27.333333333332803 51 27.333333333332803 0 27.333333333332803 0 Z" vector-effect="non-scaling-stroke"/></g><g><defs><path id="path-1713952625451485131" d="M0 0 C0 0 13.666666666667208 0 13.666666666667208 0 C13.666666666667208 0 13.666666666667208 51.00000000000001 13.666666666667208 51.00000000000001 C13.666666666667208 51.00000000000001 0 51.00000000000001 0 51.00000000000001 C0 51.00000000000001 0 0 0 0 Z" vector-effect="non-scaling-stroke"/></defs> <path style="stroke: rgb(140, 140, 140); stroke-width: 0; stroke-linecap: butt; stroke-linejoin: miter; fill: rgb(255, 255, 255);" d="M0 0 C0 0 13.666666666667197 0 13.666666666667197 0 C13.666666666667197 0 13.666666666667197 51 13.666666666667197 51 C13.666666666667197 51 0 51 0 51 C0 51 0 0 0 0 Z" vector-effect="non-scaling-stroke"/></g></svg>