
<svg version="1.2" xmlns="http://www.w3.org/2000/svg" xmlns:xlink="http://www.w3.org/1999/xlink" overflow="visible" preserveAspectRatio="none" viewBox="0 0 62 75" xml:space="preserve" y="0px" x="0px" id="Layer_1_1706877233126" width="60" height="73"><g transform="translate(1, 1)"><style type="text/css">
	.st0_1706877233126{fill:#FFFFFF;}
	.st1_1706877233126{font-family:'HelveticaNeue-Bold';}
	.st2_1706877233126{font-size:20px;}
</style><g transform="translate(29.6404, 35.9724) rotate(-270) translate(-29.6404, -35.9724)translate(-6.3319, 6.3319)" id="PwC_Funct_Icons_Refresh_Outline_Black_RGB_1706877233126">
	<path d="M14.5,13l-1.1,1.1v15c0,12,7.2,22.8,18.3,27.4s23.8,2.1,32.3-6.4s11-21.2,6.4-32.3   C65.8,6.8,55-0.4,43-0.4v4.5c13.9,0,25.1,11.3,25.1,25.1S56.9,54.3,43,54.3S17.8,43.1,17.8,29.2v-15l-1.1-1.1l1.1,1.1v-2.5h-4.5   v2.4L14.5,13z M17.8,11.7v2.4l8.9,8.9c0.9,0.9,2.3,0.9,3.2,0c0.9-0.9,0.9-2.3,0-3.2L15.6,5.5L1.3,19.8c-0.8,0.9-0.8,2.3,0.1,3.1   s2.2,0.9,3.1,0.1l8.9-8.9v-2.4H17.8z" class="st0_1706877233126" id="Outline-v2_1706877233126" vector-effect="non-scaling-stroke"/>
</g><text class="st0_1706877233126 st1_1706877233126 st2_1706877233126" transform="matrix(1 0 0 1 18.991 50)" vector-effect="non-scaling-stroke" >10</text></g></svg>