<svg version="1.2" xmlns="http://www.w3.org/2000/svg" xmlns:xlink="http://www.w3.org/1999/xlink" overflow="visible" preserveAspectRatio="none" viewBox="0 0 21 16.00001" width="21" height="16.00001"><g transform="translate(0, 0)"><g transform="translate(0, -2.220446049250313e-16) rotate(0)"><path style="stroke-width: 0; stroke-linecap: butt; stroke-linejoin: miter; fill: rgb(255, 255, 255);" d="M21,1.6v-0.26667c0,-0.74074 -0.58333,-1.33333 -1.3125,-1.33333h-18.375c-0.72917,0 -1.3125,0.59259 -1.3125,1.33333v0.26667l10.5,5.12593zM10.5,9.6889l-10.5,-5.12593v10.10371c0,0.74074 0.58333,1.33333 1.3125,1.33333h18.375c0.72917,0 1.3125,-0.59259 1.3125,-1.33333v-10.10371z" vector-effect="non-scaling-stroke"/></g><defs><path id="path-17108541603354682" d="M21,1.6v-0.26667c0,-0.74074 -0.58333,-1.33333 -1.3125,-1.33333h-18.375c-0.72917,0 -1.3125,0.59259 -1.3125,1.33333v0.26667l10.5,5.12593zM10.5,9.6889l-10.5,-5.12593v10.10371c0,0.74074 0.58333,1.33333 1.3125,1.33333h18.375c0.72917,0 1.3125,-0.59259 1.3125,-1.33333v-10.10371z" vector-effect="non-scaling-stroke"/></defs></g></svg>