<svg version="1.2" xmlns="http://www.w3.org/2000/svg" xmlns:xlink="http://www.w3.org/1999/xlink" overflow="visible" preserveAspectRatio="none" viewBox="0 0 20.000000007022198 19.99999999422994" width="20.000000007022198" height="19.99999999422994"><g transform="translate(0, 0)"><defs><path id="path-17108541603364684" d="M19.9876211 16.45714190000001 C19.925811499999995 15.980263100000002 19.6443132 15.559876400000007 19.227014100000005 15.32125940000003 C19.227014100000005 15.32125940000003 14.283068499999999 12.480164299999956 14.283068499999999 12.480164299999956 C13.677610299999998 12.132393399999955 12.914318800000004 12.233681400000023 12.420414100000002 12.72733679999999 C12.420414100000002 12.72733679999999 11.448835799999998 13.699363500000004 11.448835799999998 13.699363500000004 C11.191547399999997 13.95775649999996 10.780929299999997 13.980512599999997 10.496689099999998 13.752130599999987 C9.714340809999996 13.120745499999998 8.966531599999996 12.447684800000047 8.2565071 11.735869699999967 C7.545020280000003 11.025517499999978 6.8722699899999995 10.277363199999968 6.241176109999998 9.494653940000035 C6.0128994800000015 9.21028259000002 6.035645090000003 8.799474959999998 6.293918930000004 8.54206782999995 C6.293918930000004 8.54206782999995 7.265497230000001 7.570041179999976 7.265497230000001 7.570041179999976 C7.75892494 7.07590859000004 7.860166290000002 6.312264830000004 7.512555720000002 5.706527250000022 C7.512555720000002 5.706527250000022 4.672771140000002 0.7741863349999676 4.672771140000002 0.7741863349999676 C4.432705050000003 0.35767304399996647 4.012705910000001 0.07651697270000568 3.5362869499999974 0.013400418400010494 C3.0598679900000008 -0.04971613589998469 2.58119997 0.1123834339999803 2.2410494499999984 0.4520289329999514 C2.2410494499999984 0.4520289329999514 0.7781301190000001 1.9156233400000247 0.7781301190000001 1.9156233400000247 C-0.24341506600000073 2.937639920000038 -0.2600706939999995 4.806708299999968 0.7337151109999986 7.192339400000037 C1.6858618499999984 9.472436180000045 3.4652381100000014 11.983042100000034 5.730403520000003 14.260361699999976 C7.9955689299999975 16.53768130000003 10.5161206 18.32065590000002 12.797941700000003 19.259355899999946 C13.775438199999996 19.705134199999975 14.8307067 19.955156699999975 15.904216300000002 19.99531890000003 C16.702288699999997 20.040291900000057 17.4845034 19.759726999999998 18.072223899999997 19.21769759999995 C18.072223899999997 19.21769759999995 19.5351432 17.75132599999995 19.5351432 17.75132599999995 C19.8811306 17.41520490000005 20.0487641 16.935737000000017 19.9876211 16.45714190000001 C19.9876211 16.45714190000001 19.9876211 16.45714190000001 19.9876211 16.45714190000001 Z" vector-effect="non-scaling-stroke"/></defs><g transform="translate(-3.89910326248355e-11, -3.9335645851679146e-11)"><path style="stroke-width: 0; stroke-linecap: butt; stroke-linejoin: miter; fill: rgb(255, 255, 255);" d="M19.9876211 16.45714190000001 C19.925811499999995 15.980263100000002 19.6443132 15.559876400000007 19.227014100000005 15.32125940000003 C19.227014100000005 15.32125940000003 14.283068499999999 12.480164299999956 14.283068499999999 12.480164299999956 C13.677610299999998 12.132393399999955 12.914318800000004 12.233681400000023 12.420414100000002 12.72733679999999 C12.420414100000002 12.72733679999999 11.448835799999998 13.699363500000004 11.448835799999998 13.699363500000004 C11.191547399999997 13.95775649999996 10.780929299999997 13.980512599999997 10.496689099999998 13.752130599999987 C9.714340809999996 13.120745499999998 8.966531599999996 12.447684800000047 8.2565071 11.735869699999967 C7.545020280000003 11.025517499999978 6.8722699899999995 10.277363199999968 6.241176109999998 9.494653940000035 C6.0128994800000015 9.21028259000002 6.035645090000003 8.799474959999998 6.293918930000004 8.54206782999995 C6.293918930000004 8.54206782999995 7.265497230000001 7.570041179999976 7.265497230000001 7.570041179999976 C7.75892494 7.07590859000004 7.860166290000002 6.312264830000004 7.512555720000002 5.706527250000022 C7.512555720000002 5.706527250000022 4.672771140000002 0.7741863349999676 4.672771140000002 0.7741863349999676 C4.432705050000003 0.35767304399996647 4.012705910000001 0.07651697270000568 3.5362869499999974 0.013400418400010494 C3.0598679900000008 -0.04971613589998469 2.58119997 0.1123834339999803 2.2410494499999984 0.4520289329999514 C2.2410494499999984 0.4520289329999514 0.7781301190000001 1.9156233400000247 0.7781301190000001 1.9156233400000247 C-0.24341506600000073 2.937639920000038 -0.2600706939999995 4.806708299999968 0.7337151109999986 7.192339400000037 C1.6858618499999984 9.472436180000045 3.4652381100000014 11.983042100000034 5.730403520000003 14.260361699999976 C7.9955689299999975 16.53768130000003 10.5161206 18.32065590000002 12.797941700000003 19.259355899999946 C13.775438199999996 19.705134199999975 14.8307067 19.955156699999975 15.904216300000002 19.99531890000003 C16.702288699999997 20.040291900000057 17.4845034 19.759726999999998 18.072223899999997 19.21769759999995 C18.072223899999997 19.21769759999995 19.5351432 17.75132599999995 19.5351432 17.75132599999995 C19.8811306 17.41520490000005 20.0487641 16.935737000000017 19.9876211 16.45714190000001 C19.9876211 16.45714190000001 19.9876211 16.45714190000001 19.9876211 16.45714190000001 Z" vector-effect="non-scaling-stroke"/></g></g></svg>