<svg version="1.2" xmlns="http://www.w3.org/2000/svg" xmlns:xlink="http://www.w3.org/1999/xlink" overflow="visible" preserveAspectRatio="none" viewBox="0 0 22.89957286384806 23.30380935719113" width="22.89957286384806" height="23.30380935719113"><g transform="translate(0, 0)"><defs><path id="path-174274826247852917" d="M9.649608285465183 11.895689385510922 C9.649608285465183 11.895689385510922 0.33639416681658074 2.2423224122165264 0.33639416681658074 2.2423224122165264 C-0.12375643969476187 1.7653654120826106 -0.110132165753339 1.0056895987017924 0.3668248343807136 0.5455389921909954 C0.8437818345149025 0.08538838568019855 1.6034576478943563 0.09901265962107574 2.063608254405699 0.5759696597549919 C2.063608254405699 0.5759696597549919 11.21757918555827 10.064277298232627 11.21757918555827 10.064277298232627 C11.21757918555827 10.064277298232627 20.380590644007544 0.3754620745708962 20.380590644007544 0.3754620745708962 C20.83597197989825 -0.10605054164261675 21.59547459204991 -0.12723412983687013 22.076987208262878 0.3281472060538363 C22.558499824475845 0.7835285419445427 22.579683412671056 1.543031154095661 22.124302076780488 2.024543770309174 C22.124302076780488 2.024543770309174 13.249964578382878 11.408119971680208 13.249964578382878 11.408119971680208 C13.249964578382878 11.408119971680208 22.56317869703148 21.061486944974604 22.56317869703148 21.061486944974604 C23.023329303542823 21.538443945108522 23.0097050296014 22.29811975848934 22.53274802946721 22.758270365000136 C22.055791029333022 23.21842097151093 21.296115215953566 23.204796697570057 20.835964609442225 22.72783969743614 C20.835964609442225 22.72783969743614 11.681993678298658 13.23953205894868 11.681993678298658 13.23953205894868 C11.681993678298658 13.23953205894868 2.518982219840518 22.928347282620233 2.518982219840518 22.928347282620233 C2.0636008839498117 23.409859898833748 1.3040982717981477 23.431043487028 0.8225856555851805 22.975662151137296 C0.34107303937221334 22.52028081524659 0.31988945117700496 21.76077820309547 0.7752707870675749 21.27926558688196 C0.7752707870675749 21.27926558688196 9.649608285465183 11.895689385510922 9.649608285465183 11.895689385510922 Z" vector-effect="non-scaling-stroke"/></defs><g transform="translate(0, 0)"><path d="M9.649608285465183 11.895689385510922 C9.649608285465183 11.895689385510922 0.33639416681658074 2.2423224122165264 0.33639416681658074 2.2423224122165264 C-0.12375643969476187 1.7653654120826106 -0.110132165753339 1.0056895987017924 0.3668248343807136 0.5455389921909954 C0.8437818345149025 0.08538838568019855 1.6034576478943563 0.09901265962107574 2.063608254405699 0.5759696597549919 C2.063608254405699 0.5759696597549919 11.21757918555827 10.064277298232627 11.21757918555827 10.064277298232627 C11.21757918555827 10.064277298232627 20.380590644007544 0.3754620745708962 20.380590644007544 0.3754620745708962 C20.83597197989825 -0.10605054164261675 21.59547459204991 -0.12723412983687013 22.076987208262878 0.3281472060538363 C22.558499824475845 0.7835285419445427 22.579683412671056 1.543031154095661 22.124302076780488 2.024543770309174 C22.124302076780488 2.024543770309174 13.249964578382878 11.408119971680208 13.249964578382878 11.408119971680208 C13.249964578382878 11.408119971680208 22.56317869703148 21.061486944974604 22.56317869703148 21.061486944974604 C23.023329303542823 21.538443945108522 23.0097050296014 22.29811975848934 22.53274802946721 22.758270365000136 C22.055791029333022 23.21842097151093 21.296115215953566 23.204796697570057 20.835964609442225 22.72783969743614 C20.835964609442225 22.72783969743614 11.681993678298658 13.23953205894868 11.681993678298658 13.23953205894868 C11.681993678298658 13.23953205894868 2.518982219840518 22.928347282620233 2.518982219840518 22.928347282620233 C2.0636008839498117 23.409859898833748 1.3040982717981477 23.431043487028 0.8225856555851805 22.975662151137296 C0.34107303937221334 22.52028081524659 0.31988945117700496 21.76077820309547 0.7752707870675749 21.27926558688196 C0.7752707870675749 21.27926558688196 9.649608285465183 11.895689385510922 9.649608285465183 11.895689385510922 Z" style="stroke: rgb(140, 140, 140); stroke-width: 0; stroke-linecap: butt; stroke-linejoin: miter; fill: rgb(0, 0, 0);" vector-effect="non-scaling-stroke"/></g></g></svg>