<svg version="1.2" xmlns="http://www.w3.org/2000/svg" xmlns:xlink="http://www.w3.org/1999/xlink" overflow="visible" preserveAspectRatio="none" viewBox="0 0 16 16" width="16" height="16"><g transform="translate(0, 0)"><defs><path id="path-1713465038808346864" d="M10.555555555555555 3 C10.555555555555555 3 10.555555555555555 10 10.555555555555555 10 C10.555555555555555 10 3.5555555555555554 10 3.5555555555555554 10 C3.5555555555555554 10 3.5555555555555554 12 3.5555555555555554 12 C3.5555555555555554 12 10.555555555555555 12 10.555555555555555 12 C10.555555555555555 12 10.555555555555555 19 10.555555555555555 19 C10.555555555555555 19 12.555555555555555 19 12.555555555555555 19 C12.555555555555555 19 12.555555555555555 12 12.555555555555555 12 C12.555555555555555 12 19.555555555555554 12 19.555555555555554 12 C19.555555555555554 12 19.555555555555554 10 19.555555555555554 10 C19.555555555555554 10 12.555555555555555 10 12.555555555555555 10 C12.555555555555555 10 12.555555555555555 3 12.555555555555555 3 C12.555555555555555 3 10.555555555555555 3 10.555555555555555 3 Z" vector-effect="non-scaling-stroke"/></defs><g transform="translate(-3.5555555555555554, -3)"><path style="stroke-width: 0; stroke-linecap: butt; stroke-linejoin: miter; fill: rgb(255, 255, 255);" d="M10.555555555555555 3 C10.555555555555555 3 10.555555555555555 10 10.555555555555555 10 C10.555555555555555 10 3.5555555555555554 10 3.5555555555555554 10 C3.5555555555555554 10 3.5555555555555554 12 3.5555555555555554 12 C3.5555555555555554 12 10.555555555555555 12 10.555555555555555 12 C10.555555555555555 12 10.555555555555555 19 10.555555555555555 19 C10.555555555555555 19 12.555555555555555 19 12.555555555555555 19 C12.555555555555555 19 12.555555555555555 12 12.555555555555555 12 C12.555555555555555 12 19.555555555555554 12 19.555555555555554 12 C19.555555555555554 12 19.555555555555554 10 19.555555555555554 10 C19.555555555555554 10 12.555555555555555 10 12.555555555555555 10 C12.555555555555555 10 12.555555555555555 3 12.555555555555555 3 C12.555555555555555 3 10.555555555555555 3 10.555555555555555 3 Z" vector-effect="non-scaling-stroke"/></g></g></svg>