<svg height="15" overflow="visible" viewBox="0 0 15 15" width="15" xmlns="http://www.w3.org/2000/svg"><g><defs><path id="path-171620336553010639" d="M9.776963350000019 0 C9.31142490000002 0 8.934031409999989 0.3777098890000161 8.934031409999989 0.8436386500000027 C8.934031409999989 1.3095674099999997 9.31142490000002 1.6872773000000054 9.776963350000019 1.6872773000000054 C9.776963350000019 1.6872773000000054 12.120418799999982 1.6872773000000054 12.120418799999982 1.6872773000000054 C12.120418799999982 1.6872773000000054 5.000000000000001 8.813665899999988 5.000000000000001 8.813665899999988 C5.000000000000001 8.813665899999988 6.2041884800000275 9.999999999999998 6.2041884800000275 9.999999999999998 C6.2041884800000275 9.999999999999998 13.324607300000023 2.873611400000016 13.324607300000023 2.873611400000016 C13.324607300000023 2.873611400000016 13.324607300000023 5.227415640000004 13.324607300000023 5.227415640000004 C13.324607300000023 5.6904504299999985 13.699656800000017 6.065814289999992 14.162303699999999 6.065814289999992 C14.624950599999975 6.065814289999992 15.000000000000002 5.6904504299999985 15.000000000000002 5.227415640000004 C15.000000000000002 5.227415640000004 15.000000000000002 0 15.000000000000002 0 C15.000000000000002 0 9.776963350000019 0 9.776963350000019 0 Z" vector-effect="non-scaling-stroke"/></defs> <path style="stroke-width: 0; stroke-linecap: butt; stroke-linejoin: miter; fill: rgb(45, 45, 45);" d="M9.776963350000017 0 C9.31142490000002 0 8.934031409999989 0.3777098890000161 8.934031409999989 0.8436386500000026 C8.934031409999989 1.3095674099999997 9.31142490000002 1.6872773000000052 9.776963350000017 1.6872773000000052 C9.776963350000017 1.6872773000000052 12.120418799999982 1.6872773000000052 12.120418799999982 1.6872773000000052 C12.120418799999982 1.6872773000000052 5 8.81366589999999 5 8.81366589999999 C5 8.81366589999999 6.2041884800000275 10 6.2041884800000275 10 C6.2041884800000275 10 13.324607300000025 2.8736114000000157 13.324607300000025 2.8736114000000157 C13.324607300000025 2.8736114000000157 13.324607300000025 5.227415640000004 13.324607300000025 5.227415640000004 C13.324607300000025 5.6904504299999985 13.699656800000014 6.065814289999992 14.162303699999995 6.065814289999992 C14.624950599999977 6.065814289999992 15 5.6904504299999985 15 5.227415640000004 C15 5.227415640000004 15 0 15 0 C15 0 9.776963350000017 0 9.776963350000017 0 Z" vector-effect="non-scaling-stroke"/></g><g><defs><path id="path-171620336553010637" d="M13.333333299999993 13.321751199999996 C13.333333299999993 13.321751199999996 1.677083330000016 13.321751199999996 1.677083330000016 13.321751199999996 C1.677083330000016 13.321751199999996 1.677083330000016 1.6678248800000124 1.677083330000016 1.6678248800000124 C1.677083330000016 1.6678248800000124 7.768750000000016 1.6678248800000124 7.768750000000016 1.6678248800000124 C7.768750000000016 1.6678248800000124 7.768750000000016 0 7.768750000000016 0 C7.768750000000016 0 1.5791666700000069 0 1.5791666700000069 0 C0.711537132999979 0.0011167940299969816 0.006858019410003636 0.7016340979999998 0 1.5698401700000204 C0 1.5698401700000204 0 13.41973589999998 0 13.41973589999998 C0.0011476958100047339 14.292015499999993 0.7074928330000034 14.998851500000002 1.5791666700000069 15.000000000000005 C1.5791666700000069 15.000000000000005 13.420833300000028 15.000000000000005 13.420833300000028 15.000000000000005 C14.292507199999989 14.998851500000002 14.998852300000008 14.292015499999993 15.000000000000004 13.41973589999998 C15.000000000000004 13.41973589999998 15.000000000000004 7.2070882599999795 15.000000000000004 7.2070882599999795 C15.000000000000004 7.2070882599999795 13.333333299999993 7.2070882599999795 13.333333299999993 7.2070882599999795 C13.333333299999993 7.2070882599999795 13.333333299999993 13.321751199999996 13.333333299999993 13.321751199999996 Z" vector-effect="non-scaling-stroke"/></defs> <path style="stroke-width: 0; stroke-linecap: butt; stroke-linejoin: miter; fill: rgb(45, 45, 45);" d="M13.333333299999993 13.321751199999994 C13.333333299999993 13.321751199999994 1.6770833300000163 13.321751199999994 1.6770833300000163 13.321751199999994 C1.6770833300000163 13.321751199999994 1.6770833300000163 1.667824880000012 1.6770833300000163 1.667824880000012 C1.6770833300000163 1.667824880000012 7.768750000000011 1.667824880000012 7.768750000000011 1.667824880000012 C7.768750000000011 1.667824880000012 7.768750000000011 0 7.768750000000011 0 C7.768750000000011 0 1.5791666700000064 0 1.5791666700000064 0 C0.7115371329999789 0.0011167940299969814 0.006858019410003635 0.7016340979999995 0 1.5698401700000204 C0 1.5698401700000204 0 13.419735899999978 0 13.419735899999978 C0.001147695810004734 14.29201549999999 0.7074928330000034 14.9988515 1.5791666700000064 15 C1.5791666700000064 15 13.420833300000027 15 13.420833300000027 15 C14.292507199999989 14.9988515 14.99885230000001 14.29201549999999 15 13.419735899999978 C15 13.419735899999978 15 7.207088259999978 15 7.207088259999978 C15 7.207088259999978 13.333333299999993 7.207088259999978 13.333333299999993 7.207088259999978 C13.333333299999993 7.207088259999978 13.333333299999993 13.321751199999994 13.333333299999993 13.321751199999994 Z" vector-effect="non-scaling-stroke"/></g></svg>