<svg version="1.2" xmlns="http://www.w3.org/2000/svg" xmlns:xlink="http://www.w3.org/1999/xlink" overflow="visible" preserveAspectRatio="none" viewBox="0 0 14 14" width="14" height="14"><g transform="translate(0, 0)"><defs><path id="path-1714029018497117880" d="M2.7222222222222205 6.22222222222222 C2.7222222222222205 6.22222222222222 7.0972222222222205 9.625 7.0972222222222205 9.625 C7.0972222222222205 9.625 7.972222222222221 16.722222222222214 7.972222222222221 16.722222222222214 C7.972222222222221 16.722222222222214 11.472222222222221 13.805555555555546 11.472222222222221 13.805555555555546 C11.472222222222221 13.805555555555546 12.347222222222218 9.625 12.347222222222218 9.625 C12.347222222222218 9.625 16.722222222222214 6.22222222222222 16.722222222222214 6.22222222222222 C16.722222222222214 6.22222222222222 16.722222222222214 2.7222222222222205 16.722222222222214 2.7222222222222205 C16.722222222222214 2.7222222222222205 2.7222222222222205 2.7222222222222205 2.7222222222222205 2.7222222222222205 C2.7222222222222205 2.7222222222222205 2.7222222222222205 6.22222222222222 2.7222222222222205 6.22222222222222 Z" vector-effect="non-scaling-stroke"/></defs><g transform="translate(-2.7222222222222205, -2.7222222222222205)"><path d="M2.7222222222222205 6.22222222222222 C2.7222222222222205 6.22222222222222 7.0972222222222205 9.625 7.0972222222222205 9.625 C7.0972222222222205 9.625 7.972222222222221 16.722222222222214 7.972222222222221 16.722222222222214 C7.972222222222221 16.722222222222214 11.472222222222221 13.805555555555546 11.472222222222221 13.805555555555546 C11.472222222222221 13.805555555555546 12.347222222222218 9.625 12.347222222222218 9.625 C12.347222222222218 9.625 16.722222222222214 6.22222222222222 16.722222222222214 6.22222222222222 C16.722222222222214 6.22222222222222 16.722222222222214 2.7222222222222205 16.722222222222214 2.7222222222222205 C16.722222222222214 2.7222222222222205 2.7222222222222205 2.7222222222222205 2.7222222222222205 2.7222222222222205 C2.7222222222222205 2.7222222222222205 2.7222222222222205 6.22222222222222 2.7222222222222205 6.22222222222222 Z" style="stroke: rgb(140, 140, 140); stroke-width: 0; stroke-linecap: butt; stroke-linejoin: miter; fill: rgb(255, 255, 255);" vector-effect="non-scaling-stroke"/></g></g></svg>