<?xml version="1.0" encoding="utf-8"?>
<!-- Generator: Adobe Illustrator 25.0.0, SVG Export Plug-In . SVG Version: 6.00 Build 0)  -->
<svg version="1.1" id="Layer_1" xmlns="http://www.w3.org/2000/svg" xmlns:xlink="http://www.w3.org/1999/xlink" x="0px" y="0px"
	 viewBox="0 0 90.9 530.7" style="enable-background:new 0 0 90.9 530.7;" xml:space="preserve">
<style type="text/css">
	.st0{fill:#6A1CE2;}
	.st1{fill:#B15AFE;}
	.st2{fill:#DEB8FF;}
	.st3{fill:#9013FE;}
	.st4{fill:#FFFFFF;}
	.st5{fill:#FFECBD;}
	.st6{fill:#FFC83D;}
	.st7{fill:#FFB600;}
	.st8{fill:#C28A00;}
	.st9{fill:#FFDCA9;}
	.st10{fill:#FFA929;}
	.st11{fill:#EB8C00;}
	.st12{fill:#AE6800;}
	.st13{fill:#FEB791;}
	.st14{fill:#FD6412;}
	.st15{fill:#D04A02;}
	.st16{fill:#933401;}
	.st17{fill:#F1BAC3;}
	.st18{fill:#E27588;}
	.st19{fill:#DB536A;}
	.st20{fill:#A43E50;}
	.st21{fill:#F7C8C4;}
	.st22{fill:#E86153;}
	.st23{fill:#E0301E;}
	.st24{fill:#AA2417;}
	.st25{fill:#C4FC9F;}
	.st26{fill:#86DB4F;}
	.st27{fill:#4EB523;}
	.st28{fill:#2C8646;}
</style>
<g>
	<rect x="0.52" y="3.59" class="st0" width="11.3" height="10.6"/>
	<rect x="0.52" y="32.1" class="st1" width="11.3" height="10.6"/>
	<rect x="0.52" y="46.2" class="st2" width="11.3" height="10.6"/>
	<rect x="0.28" y="17.51" class="st3" width="11.3" height="10.6"/>
	<rect x="0.5" y="392.44" class="st4" width="11.3" height="10.6"/>
	<rect x="0.5" y="378.04" class="st4" width="11.3" height="10.6"/>
	<rect x="0.5" y="363.54" class="st4" width="11.3" height="10.6"/>
	<rect x="0.5" y="349.04" class="st4" width="11.3" height="10.6"/>
	<rect x="0.5" y="334.64" class="st4" width="11.3" height="10.6"/>
	<rect x="0.5" y="334.64" class="st5" width="11.3" height="10.6"/>
	<rect x="0.5" y="320.14" class="st4" width="11.3" height="10.6"/>
	<rect x="0.5" y="320.14" class="st6" width="11.3" height="10.6"/>
	<rect x="0.5" y="305.64" class="st4" width="11.3" height="10.6"/>
	<rect x="0.5" y="305.64" class="st7" width="11.3" height="10.6"/>
	<rect x="0.5" y="291.24" class="st4" width="11.3" height="10.6"/>
	<rect x="0.5" y="291.24" class="st8" width="11.3" height="10.6"/>
	<rect x="0.5" y="276.74" class="st4" width="11.3" height="10.6"/>
	<rect x="0.5" y="276.74" class="st9" width="11.3" height="10.6"/>
	<rect x="0.5" y="262.34" class="st4" width="11.3" height="10.6"/>
	<rect x="0.5" y="262.34" class="st10" width="11.3" height="10.6"/>
	<rect x="0.5" y="247.84" class="st4" width="11.3" height="10.6"/>
	<rect x="0.5" y="247.84" class="st11" width="11.3" height="10.6"/>
	<rect x="0.5" y="233.34" class="st4" width="11.3" height="10.6"/>
	<rect x="0.5" y="233.34" class="st12" width="11.3" height="10.6"/>
	<rect x="0.5" y="218.94" class="st4" width="11.3" height="10.6"/>
	<rect x="0.5" y="218.94" class="st13" width="11.3" height="10.6"/>
	<rect x="0.5" y="204.44" class="st4" width="11.3" height="10.6"/>
	<rect x="0.5" y="204.44" class="st14" width="11.3" height="10.6"/>
	<rect x="0.5" y="190.04" class="st4" width="11.3" height="10.6"/>
	<rect x="0.5" y="190.04" class="st15" width="11.3" height="10.6"/>
	<rect x="0.5" y="175.54" class="st4" width="11.3" height="10.6"/>
	<rect x="0.5" y="175.54" class="st16" width="11.3" height="10.6"/>
	<rect x="0.5" y="161.04" class="st4" width="11.3" height="10.6"/>
	<rect x="0.5" y="161.04" class="st17" width="11.3" height="10.6"/>
	<rect x="0.5" y="146.64" class="st4" width="11.3" height="10.6"/>
	<rect x="0.5" y="146.64" class="st18" width="11.3" height="10.6"/>
	<rect x="0.5" y="132.14" class="st4" width="11.3" height="10.6"/>
	<rect x="0.5" y="132.14" class="st19" width="11.3" height="10.6"/>
	<rect x="0.5" y="117.64" class="st4" width="11.3" height="10.6"/>
	<rect x="0.5" y="117.64" class="st20" width="11.3" height="10.6"/>
	<rect x="0.5" y="103.24" class="st4" width="11.3" height="10.6"/>
	<rect x="0.5" y="103.24" class="st21" width="11.3" height="10.6"/>
	<rect x="0.5" y="88.74" class="st4" width="11.3" height="10.6"/>
	<rect x="0.5" y="88.74" class="st22" width="11.3" height="10.6"/>
	<rect x="0.5" y="74.34" class="st4" width="11.3" height="10.6"/>
	<rect x="0.5" y="74.34" class="st23" width="11.3" height="10.6"/>
	<rect x="0.5" y="59.84" class="st4" width="11.3" height="10.6"/>
	<rect x="0.5" y="59.84" class="st24" width="11.3" height="10.6"/>
	<rect x="0.5" y="349.04" class="st25" width="11.3" height="10.6"/>
	<rect x="0.5" y="363.44" class="st26" width="11.3" height="10.6"/>
	<rect x="0.5" y="377.94" class="st27" width="11.3" height="10.6"/>
	<rect x="0.5" y="392.44" class="st28" width="11.3" height="10.6"/>
</g>
</svg>
