<svg version="1.2" xmlns="http://www.w3.org/2000/svg" xmlns:xlink="http://www.w3.org/1999/xlink" overflow="visible" preserveAspectRatio="none" viewBox="0 0 11 6" width="11" height="6"><g transform="translate(0, 0)"><defs><path id="path-1715663102635653" d="M12.854961832061068 4.686662412252713 C12.854961832061068 4.686662412252713 7.938931297709925 9.603063178047224 7.938931297709925 9.603063178047224 C7.938931297709925 9.603063178047224 3.0229007633587788 4.686662412252713 3.0229007633587788 4.686662412252713 C2.8854961832061075 4.548819400127633 2.67175572519084 4.548819400127633 2.5343511450381686 4.686662412252713 C2.396946564885497 4.824505424377793 2.396946564885497 5.038927887683472 2.5343511450381686 5.176770899808552 C2.5343511450381686 5.176770899808552 7.938931297709925 10.583280153158903 7.938931297709925 10.583280153158903 C7.938931297709925 10.583280153158903 13.32824427480916 5.1767708998085515 13.32824427480916 5.1767708998085515 C13.46564885496183 5.038927887683472 13.46564885496183 4.824505424377792 13.32824427480916 4.686662412252712 C13.206106870229005 4.548819400127633 12.977099236641223 4.548819400127633 12.854961832061068 4.686662412252713" vector-effect="non-scaling-stroke"/></defs><g transform="translate(-2.4312977099236646, -4.583280153158902)"><path style="stroke-width: 0; stroke-linecap: butt; stroke-linejoin: miter; fill: rgb(70, 70, 70);" d="M12.854961832061068 4.686662412252713 C12.854961832061068 4.686662412252713 7.938931297709925 9.603063178047224 7.938931297709925 9.603063178047224 C7.938931297709925 9.603063178047224 3.0229007633587788 4.686662412252713 3.0229007633587788 4.686662412252713 C2.8854961832061075 4.548819400127633 2.67175572519084 4.548819400127633 2.5343511450381686 4.686662412252713 C2.396946564885497 4.824505424377793 2.396946564885497 5.038927887683472 2.5343511450381686 5.176770899808552 C2.5343511450381686 5.176770899808552 7.938931297709925 10.583280153158903 7.938931297709925 10.583280153158903 C7.938931297709925 10.583280153158903 13.32824427480916 5.1767708998085515 13.32824427480916 5.1767708998085515 C13.46564885496183 5.038927887683472 13.46564885496183 4.824505424377792 13.32824427480916 4.686662412252712 C13.206106870229005 4.548819400127633 12.977099236641223 4.548819400127633 12.854961832061068 4.686662412252713" vector-effect="non-scaling-stroke"/></g></g></svg>