<svg version="1.2" xmlns="http://www.w3.org/2000/svg" xmlns:xlink="http://www.w3.org/1999/xlink" overflow="visible" preserveAspectRatio="none" viewBox="0 0 16 13" width="16" height="13"><g transform="translate(0, 0)"><defs><path id="path-1713465038788346849" d="M13.888888899999984 0.5 C13.888888899999984 0.5 5.666666669999984 9.081395350000093 5.666666669999984 9.081395350000093 C5.666666669999984 9.081395350000093 2.1111111100000244 5.3372093000000405 2.1111111100000244 5.3372093000000405 C2.1111111100000244 5.3372093000000405 0 7.546511629999941 0 7.546511629999941 C0 7.546511629999941 5.688888889999987 13.5 5.688888889999987 13.5 C5.688888889999987 13.5 16 2.6860465100000965 16 2.6860465100000965 C16 2.6860465100000965 13.888888899999984 0.5 13.888888899999984 0.5 Z" vector-effect="non-scaling-stroke"/></defs><g transform="translate(0, -0.5)"><path style="stroke-width: 0; stroke-linecap: butt; stroke-linejoin: miter; fill: rgb(255, 255, 255);" d="M13.888888899999984 0.5 C13.888888899999984 0.5 5.666666669999984 9.081395350000093 5.666666669999984 9.081395350000093 C5.666666669999984 9.081395350000093 2.1111111100000244 5.3372093000000405 2.1111111100000244 5.3372093000000405 C2.1111111100000244 5.3372093000000405 0 7.546511629999941 0 7.546511629999941 C0 7.546511629999941 5.688888889999987 13.5 5.688888889999987 13.5 C5.688888889999987 13.5 16 2.6860465100000965 16 2.6860465100000965 C16 2.6860465100000965 13.888888899999984 0.5 13.888888899999984 0.5 Z" vector-effect="non-scaling-stroke"/></g></g></svg>