<svg version="1.2" xmlns="http://www.w3.org/2000/svg" xmlns:xlink="http://www.w3.org/1999/xlink" overflow="visible" preserveAspectRatio="none" viewBox="0 0 10 10" width="10" height="10"><g transform="translate(0, 0)"><defs><path id="path-171396154557945783" d="M11.638888888888888 1.875 C11.638888888888888 1.875 7.222222222222222 6.291666666666666 7.222222222222222 6.291666666666666 C7.222222222222222 6.291666666666666 2.8055555555555554 1.875 2.8055555555555554 1.875 C2.8055555555555554 1.875 2.2222222222222223 2.458333333333333 2.2222222222222223 2.458333333333333 C2.2222222222222223 2.458333333333333 6.638888888888889 6.875 6.638888888888889 6.875 C6.638888888888889 6.875 2.2222222222222223 11.291666666666666 2.2222222222222223 11.291666666666666 C2.2222222222222223 11.291666666666666 2.8055555555555554 11.875 2.8055555555555554 11.875 C2.8055555555555554 11.875 7.222222222222222 7.458333333333334 7.222222222222222 7.458333333333334 C7.222222222222222 7.458333333333334 11.638888888888888 11.875 11.638888888888888 11.875 C11.638888888888888 11.875 12.222222222222223 11.291666666666666 12.222222222222223 11.291666666666666 C12.222222222222223 11.291666666666666 7.805555555555555 6.875 7.805555555555555 6.875 C7.805555555555555 6.875 12.222222222222223 2.458333333333333 12.222222222222223 2.458333333333333 C12.222222222222223 2.458333333333333 11.638888888888888 1.875 11.638888888888888 1.875 Z" vector-effect="non-scaling-stroke"/></defs><g transform="translate(-2.2222222222222223, -1.875)"><path style="stroke-width: 0; stroke-linecap: butt; stroke-linejoin: miter; fill: rgb(45, 45, 45);" d="M11.638888888888888 1.875 C11.638888888888888 1.875 7.222222222222222 6.291666666666666 7.222222222222222 6.291666666666666 C7.222222222222222 6.291666666666666 2.8055555555555554 1.875 2.8055555555555554 1.875 C2.8055555555555554 1.875 2.2222222222222223 2.458333333333333 2.2222222222222223 2.458333333333333 C2.2222222222222223 2.458333333333333 6.638888888888889 6.875 6.638888888888889 6.875 C6.638888888888889 6.875 2.2222222222222223 11.291666666666666 2.2222222222222223 11.291666666666666 C2.2222222222222223 11.291666666666666 2.8055555555555554 11.875 2.8055555555555554 11.875 C2.8055555555555554 11.875 7.222222222222222 7.458333333333334 7.222222222222222 7.458333333333334 C7.222222222222222 7.458333333333334 11.638888888888888 11.875 11.638888888888888 11.875 C11.638888888888888 11.875 12.222222222222223 11.291666666666666 12.222222222222223 11.291666666666666 C12.222222222222223 11.291666666666666 7.805555555555555 6.875 7.805555555555555 6.875 C7.805555555555555 6.875 12.222222222222223 2.458333333333333 12.222222222222223 2.458333333333333 C12.222222222222223 2.458333333333333 11.638888888888888 1.875 11.638888888888888 1.875 Z" vector-effect="non-scaling-stroke"/></g></g></svg>