<svg version="1.2" xmlns="http://www.w3.org/2000/svg" xmlns:xlink="http://www.w3.org/1999/xlink" overflow="visible" preserveAspectRatio="none" viewBox="0 0 15.999991836991503 15.999991836991503" width="15.999991836991503" height="15.999991836991503"><g transform="translate(0, 0)"><g transform="translate(-0.00000816300849754148, -0.000008163008497014124) rotate(0)"><path style="stroke-width: 0; stroke-linecap: butt; stroke-linejoin: miter; fill: rgb(0, 0, 0);" d="M16,15.29222l-5.36143,-5.35922c2.09069,-2.46901 1.86201,-6.14755 -0.51837,-8.33861c-2.38038,-2.19106 -6.06524,-2.11479 -8.35292,0.17289c-2.28768,2.28768 -2.36395,5.97254 -0.17289,8.35292c2.19106,2.38038 5.8696,2.60906 8.33861,0.51837l5.35922,5.36143zM1.07469,6.07117c0,-2.75948 2.237,-4.99649 4.99649,-4.99649c2.75948,0 4.99649,2.237 4.99649,4.99649c0,2.75948 -2.237,4.99649 -4.99649,4.99649c-2.75847,-0.00244 -4.99405,-2.23801 -4.99649,-4.99649z" vector-effect="non-scaling-stroke"/></g><defs><path id="path-1713465039218347149" d="M16,15.29222l-5.36143,-5.35922c2.09069,-2.46901 1.86201,-6.14755 -0.51837,-8.33861c-2.38038,-2.19106 -6.06524,-2.11479 -8.35292,0.17289c-2.28768,2.28768 -2.36395,5.97254 -0.17289,8.35292c2.19106,2.38038 5.8696,2.60906 8.33861,0.51837l5.35922,5.36143zM1.07469,6.07117c0,-2.75948 2.237,-4.99649 4.99649,-4.99649c2.75948,0 4.99649,2.237 4.99649,4.99649c0,2.75948 -2.237,4.99649 -4.99649,4.99649c-2.75847,-0.00244 -4.99405,-2.23801 -4.99649,-4.99649z" vector-effect="non-scaling-stroke"/></defs></g></svg>