<svg version="1.2" xmlns="http://www.w3.org/2000/svg" xmlns:xlink="http://www.w3.org/1999/xlink" overflow="visible" preserveAspectRatio="none" viewBox="0 0 19.99998 19" width="19.99998" height="19"><g transform="translate(0, 0)"><g transform="translate(-0.000009999999999177334, -0.000010000000000509601) rotate(0)"><path d="M17.03704,17.53846c-0.81708,0 -1.48148,-0.65558 -1.48148,-1.46154c0,-0.80595 0.6644,-1.46154 1.48148,-1.46154c0.81708,0 1.48148,0.65558 1.48148,1.46154c0,0.80595 -0.6644,1.46154 -1.48148,1.46154zM2.96308,10.96154c-0.81701,0 -1.4816,-0.65581 -1.4816,-1.46154c0,-0.80595 0.66458,-1.46154 1.4816,-1.46154c0.81679,0 1.48137,0.65558 1.48137,1.46154c0,0.80573 -0.66458,1.46154 -1.48137,1.46154zM17.03704,1.46154c0.81708,0 1.48148,0.65581 1.48148,1.46154c0,0.80595 -0.6644,1.46154 -1.48148,1.46154c-0.81708,0 -1.48148,-0.65558 -1.48148,-1.46154c0,-0.80573 0.6644,-1.46154 1.48148,-1.46154zM17.05895,13.16991c-0.98517,0 -1.85672,0.48436 -2.39086,1.22353l-8.80388,-4.5763c0.01125,-0.1042 0.01813,-0.20976 0.01813,-0.31714c0,-0.10716 -0.00689,-0.21272 -0.01813,-0.31714l8.80365,-4.57653c0.53413,0.7394 1.40568,1.22376 2.39108,1.22376c1.62168,0 2.94105,-1.30771 2.94105,-2.91504c0,-1.60756 -1.31938,-2.91504 -2.94105,-2.91504c-1.62168,0 -2.94105,1.30748 -2.94105,2.91504c0,0.11512 0.00849,0.22819 0.02158,0.3399l-8.79401,4.57152c-0.53275,-0.74963 -1.41096,-1.2415 -2.40417,-1.2415c-1.62191,0 -2.94128,1.30771 -2.94128,2.91504c0,1.60756 1.31938,2.91504 2.94128,2.91504c0.99321,0 1.87118,-0.49164 2.40394,-1.24105l8.79424,4.57107c-0.01308,0.11171 -0.02158,0.22478 -0.02158,0.3399c0,1.60734 1.31938,2.91504 2.94105,2.91504c1.62168,0 2.94105,-1.30771 2.94105,-2.91504c0,-1.60756 -1.31938,-2.91504 -2.94105,-2.91504z" style="stroke: rgb(140, 140, 140); stroke-width: 0; stroke-linecap: butt; stroke-linejoin: miter; fill: rgb(45, 45, 45);" vector-effect="non-scaling-stroke"/></g><defs><path id="path-1598291145483112" d="M17.03704,17.53846c-0.81708,0 -1.48148,-0.65558 -1.48148,-1.46154c0,-0.80595 0.6644,-1.46154 1.48148,-1.46154c0.81708,0 1.48148,0.65558 1.48148,1.46154c0,0.80595 -0.6644,1.46154 -1.48148,1.46154zM2.96308,10.96154c-0.81701,0 -1.4816,-0.65581 -1.4816,-1.46154c0,-0.80595 0.66458,-1.46154 1.4816,-1.46154c0.81679,0 1.48137,0.65558 1.48137,1.46154c0,0.80573 -0.66458,1.46154 -1.48137,1.46154zM17.03704,1.46154c0.81708,0 1.48148,0.65581 1.48148,1.46154c0,0.80595 -0.6644,1.46154 -1.48148,1.46154c-0.81708,0 -1.48148,-0.65558 -1.48148,-1.46154c0,-0.80573 0.6644,-1.46154 1.48148,-1.46154zM17.05895,13.16991c-0.98517,0 -1.85672,0.48436 -2.39086,1.22353l-8.80388,-4.5763c0.01125,-0.1042 0.01813,-0.20976 0.01813,-0.31714c0,-0.10716 -0.00689,-0.21272 -0.01813,-0.31714l8.80365,-4.57653c0.53413,0.7394 1.40568,1.22376 2.39108,1.22376c1.62168,0 2.94105,-1.30771 2.94105,-2.91504c0,-1.60756 -1.31938,-2.91504 -2.94105,-2.91504c-1.62168,0 -2.94105,1.30748 -2.94105,2.91504c0,0.11512 0.00849,0.22819 0.02158,0.3399l-8.79401,4.57152c-0.53275,-0.74963 -1.41096,-1.2415 -2.40417,-1.2415c-1.62191,0 -2.94128,1.30771 -2.94128,2.91504c0,1.60756 1.31938,2.91504 2.94128,2.91504c0.99321,0 1.87118,-0.49164 2.40394,-1.24105l8.79424,4.57107c-0.01308,0.11171 -0.02158,0.22478 -0.02158,0.3399c0,1.60734 1.31938,2.91504 2.94105,2.91504c1.62168,0 2.94105,-1.30771 2.94105,-2.91504c0,-1.60756 -1.31938,-2.91504 -2.94105,-2.91504z" vector-effect="non-scaling-stroke"/></defs></g></svg>