<svg version="1.2" xmlns="http://www.w3.org/2000/svg" xmlns:xlink="http://www.w3.org/1999/xlink" overflow="visible" preserveAspectRatio="none" viewBox="0 0 19.99998 19.25925" width="19.99998" height="19.25925"><g transform="translate(0, 0)"><g transform="translate(-0.000009999999999177334, -0.000020000000001019203) rotate(0)"><path d="M17.03704,17.77778c-0.81708,0 -1.48148,-0.66453 -1.48148,-1.48148c0,-0.81695 0.6644,-1.48148 1.48148,-1.48148c0.81708,0 1.48148,0.66453 1.48148,1.48148c0,0.81695 -0.6644,1.48148 -1.48148,1.48148zM2.96308,11.11111c-0.81701,0 -1.4816,-0.66476 -1.4816,-1.48148c0,-0.81695 0.66458,-1.48148 1.4816,-1.48148c0.81679,0 1.48137,0.66453 1.48137,1.48148c0,0.81672 -0.66458,1.48148 -1.48137,1.48148zM17.03704,1.48148c0.81708,0 1.48148,0.66476 1.48148,1.48148c0,0.81695 -0.6644,1.48148 -1.48148,1.48148c-0.81708,0 -1.48148,-0.66453 -1.48148,-1.48148c0,-0.81672 0.6644,-1.48148 1.48148,-1.48148zM17.05895,13.34962c-0.98517,0 -1.85672,0.49097 -2.39086,1.24023l-8.80388,-4.63874c0.01125,-0.10562 0.01813,-0.21262 0.01813,-0.32147c0,-0.10862 -0.00689,-0.21562 -0.01813,-0.32147l8.80365,-4.63897c0.53413,0.74949 1.40568,1.24046 2.39108,1.24046c1.62168,0 2.94105,-1.32555 2.94105,-2.95482c0,-1.6295 -1.31938,-2.95482 -2.94105,-2.95482c-1.62168,0 -2.94105,1.32532 -2.94105,2.95482c0,0.11669 0.00849,0.2313 0.02158,0.34453l-8.79401,4.6339c-0.53275,-0.75986 -1.41096,-1.25845 -2.40417,-1.25845c-1.62191,0 -2.94128,1.32555 -2.94128,2.95482c0,1.6295 1.31938,2.95482 2.94128,2.95482c0.99321,0 1.87118,-0.49835 2.40394,-1.25798l8.79424,4.63344c-0.01308,0.11323 -0.02158,0.22784 -0.02158,0.34453c0,1.62927 1.31938,2.95482 2.94105,2.95482c1.62168,0 2.94105,-1.32555 2.94105,-2.95482c0,-1.6295 -1.31938,-2.95482 -2.94105,-2.95482z" style="stroke: rgb(140, 140, 140); stroke-width: 0; stroke-linecap: butt; stroke-linejoin: miter; fill: rgb(224, 48, 30);" vector-effect="non-scaling-stroke"/></g><defs><path id="path-15983626378029021" d="M17.03704,17.77778c-0.81708,0 -1.48148,-0.66453 -1.48148,-1.48148c0,-0.81695 0.6644,-1.48148 1.48148,-1.48148c0.81708,0 1.48148,0.66453 1.48148,1.48148c0,0.81695 -0.6644,1.48148 -1.48148,1.48148zM2.96308,11.11111c-0.81701,0 -1.4816,-0.66476 -1.4816,-1.48148c0,-0.81695 0.66458,-1.48148 1.4816,-1.48148c0.81679,0 1.48137,0.66453 1.48137,1.48148c0,0.81672 -0.66458,1.48148 -1.48137,1.48148zM17.03704,1.48148c0.81708,0 1.48148,0.66476 1.48148,1.48148c0,0.81695 -0.6644,1.48148 -1.48148,1.48148c-0.81708,0 -1.48148,-0.66453 -1.48148,-1.48148c0,-0.81672 0.6644,-1.48148 1.48148,-1.48148zM17.05895,13.34962c-0.98517,0 -1.85672,0.49097 -2.39086,1.24023l-8.80388,-4.63874c0.01125,-0.10562 0.01813,-0.21262 0.01813,-0.32147c0,-0.10862 -0.00689,-0.21562 -0.01813,-0.32147l8.80365,-4.63897c0.53413,0.74949 1.40568,1.24046 2.39108,1.24046c1.62168,0 2.94105,-1.32555 2.94105,-2.95482c0,-1.6295 -1.31938,-2.95482 -2.94105,-2.95482c-1.62168,0 -2.94105,1.32532 -2.94105,2.95482c0,0.11669 0.00849,0.2313 0.02158,0.34453l-8.79401,4.6339c-0.53275,-0.75986 -1.41096,-1.25845 -2.40417,-1.25845c-1.62191,0 -2.94128,1.32555 -2.94128,2.95482c0,1.6295 1.31938,2.95482 2.94128,2.95482c0.99321,0 1.87118,-0.49835 2.40394,-1.25798l8.79424,4.63344c-0.01308,0.11323 -0.02158,0.22784 -0.02158,0.34453c0,1.62927 1.31938,2.95482 2.94105,2.95482c1.62168,0 2.94105,-1.32555 2.94105,-2.95482c0,-1.6295 -1.31938,-2.95482 -2.94105,-2.95482z" vector-effect="non-scaling-stroke"/></defs></g></svg>