<svg height="16.999999999999915" overflow="visible" viewBox="0 0 18 16.999999999999915" width="18" xmlns="http://www.w3.org/2000/svg"><g><defs><path id="path-1744785172442993" d="M7.584986417479655 8.677839594979446 C7.584986417479655 8.677839594979446 0.2644195609542452 1.6357617942801261 0.2644195609542452 1.6357617942801261 C-0.09727761857176333 1.287824301400898 -0.08656838253475535 0.7336449983725403 0.28833930912645406 0.39796767666163074 C0.6632470007877708 0.062290354950721286 1.2603832321983486 0.07222918741561359 1.622080411724357 0.4201666802948416 C1.622080411724357 0.4201666802948416 8.817475615836385 7.341834609420138 8.817475615836385 7.341834609420138 C8.817475615836385 7.341834609420138 16.01997704382028 0.2738975061918623 16.01997704382028 0.2738975061918623 C16.377925381755144 -0.07736328341392629 16.974925469923278 -0.09281659380548168 17.353414061975425 0.23938157137360005 C17.731902654027575 0.5715797365526818 17.748553819958957 1.125632690242193 17.390605482024203 1.4768934798479816 C17.390605482024203 1.4768934798479816 10.415013582520341 8.322160405020556 10.415013582520341 8.322160405020556 C10.415013582520341 8.322160405020556 17.73558043904575 15.364238205719877 17.73558043904575 15.364238205719877 C18.097277618571763 15.712175698599104 18.08656838253475 16.26635500162746 17.711660690873433 16.602032323338374 C17.33675299921212 16.937709645049278 16.739616767801543 16.927770812584388 16.37791958827553 16.579833319705163 C16.37791958827553 16.579833319705163 9.182524384170584 9.6581653905727 9.182524384170584 9.6581653905727 C9.182524384170584 9.6581653905727 1.9800229561797196 16.726102493808142 1.9800229561797196 16.726102493808142 C1.6220746182448555 17.07736328341393 1.0250745300767197 17.092816593805484 0.6465859380245725 16.7606184286264 C0.26809734597242546 16.42842026344732 0.2514461800410416 15.874367309757812 0.6093945179757978 15.523106520152021 C0.6093945179757978 15.523106520152021 7.584986417479655 8.677839594979446 7.584986417479655 8.677839594979446 Z" vector-effect="non-scaling-stroke"/></defs> <path d="M7.584986417479627 8.677839594979446 C7.584986417479627 8.677839594979446 0.2644195609542521 1.6357617942801426 0.2644195609542521 1.6357617942801426 C-0.0972776185717521 1.2878243014009172 -0.08656838253477872 0.7336449983725402 0.28833930912645656 0.39796767666160804 C0.6632470007877487 0.06229035495073276 1.2603832321983646 0.07222918741558715 1.6220804117243688 0.42016668029486937 C1.6220804117243688 0.42016668029486937 8.817475615836372 7.341834609420118 8.817475615836372 7.341834609420118 C8.817475615836372 7.341834609420118 16.01997704382029 0.27389750619187225 16.01997704382029 0.27389750619187225 C16.37792538175512 -0.07736328341394483 16.974925469923278 -0.09281659380548035 17.3534140619754 0.23938157137359894 C17.73190265402758 0.5715797365526782 17.748553819958943 1.1256326902421847 17.390605482024228 1.4768934798480018 C17.390605482024228 1.4768934798480018 10.415013582520317 8.322160405020554 10.415013582520317 8.322160405020554 C10.415013582520317 8.322160405020554 17.735580439045748 15.364238205719857 17.735580439045748 15.364238205719857 C18.097277618571752 15.712175698599083 18.08656838253478 16.26635500162746 17.71166069087343 16.602032323338392 C17.336752999212138 16.937709645049267 16.73961676780152 16.927770812584413 16.377919588275518 16.579833319705187 C16.377919588275518 16.579833319705187 9.182524384170563 9.65816539057272 9.182524384170563 9.65816539057272 C9.182524384170563 9.65816539057272 1.9800229561797096 16.726102493808128 1.9800229561797096 16.726102493808128 C1.6220746182448806 17.077363283413945 1.0250745300767221 17.09281659380548 0.6465859380246002 16.7606184286264 C0.2680973459724214 16.42842026344732 0.25144618004105723 15.874367309757815 0.6093945179757725 15.523106520151998 C0.6093945179757725 15.523106520151998 7.584986417479627 8.677839594979446 7.584986417479627 8.677839594979446 Z" style="stroke: rgb(140, 140, 140); stroke-width: 0; stroke-linecap: butt; stroke-linejoin: miter; fill: rgb(0, 0, 0);" vector-effect="non-scaling-stroke"/></g></svg>